<?xml version="1.0" encoding="UTF-8" standalone="no"?>
<!-- Created with Inkscape (http://www.inkscape.org/) -->

<svg
   xmlns:dc="http://purl.org/dc/elements/1.1/"
   xmlns:cc="http://creativecommons.org/ns#"
   xmlns:rdf="http://www.w3.org/1999/02/22-rdf-syntax-ns#"
   xmlns:svg="http://www.w3.org/2000/svg"
   xmlns="http://www.w3.org/2000/svg"
   xmlns:sodipodi="http://sodipodi.sourceforge.net/DTD/sodipodi-0.dtd"
   xmlns:inkscape="http://www.inkscape.org/namespaces/inkscape"
   width="163.00148mm"
   height="161.38759mm"
   viewBox="0 0 163.00148 161.38759"
   version="1.1"
   id="svg1894"
   inkscape:version="0.92.5 (2060ec1f9f, 2020-04-08)"
   sodipodi:docname="amfo_balloons_1.svg">
  <defs
     id="defs1888" />
  <sodipodi:namedview
     id="base"
     pagecolor="#ffffff"
     bordercolor="#666666"
     borderopacity="1.0"
     inkscape:pageopacity="0.0"
     inkscape:pageshadow="2"
     inkscape:zoom="0.35"
     inkscape:cx="-155.17712"
     inkscape:cy="110.54029"
     inkscape:document-units="mm"
     inkscape:current-layer="layer1"
     showgrid="false"
     fit-margin-top="0"
     fit-margin-left="0"
     fit-margin-right="0"
     fit-margin-bottom="0"
     inkscape:window-width="1848"
     inkscape:window-height="1016"
     inkscape:window-x="72"
     inkscape:window-y="27"
     inkscape:window-maximized="1" />
  <metadata
     id="metadata1891">
    <rdf:RDF>
      <cc:Work
         rdf:about="">
        <dc:format>image/svg+xml</dc:format>
        <dc:type
           rdf:resource="http://purl.org/dc/dcmitype/StillImage" />
        <dc:title></dc:title>
      </cc:Work>
    </rdf:RDF>
  </metadata>
  <g
     inkscape:label="Layer 1"
     inkscape:groupmode="layer"
     id="layer1"
     transform="translate(-11.575137,-16.692867)">
    <g
       id="g2450"
       transform="matrix(9.5307636,0,0,9.5307636,-288.77871,-348.46026)">
      <path
         style="fill:#fdfdfd;stroke-width:0.08466666"
         d="m 31.514143,46.779769 v -8.466666 h 8.551334 8.551333 v 8.466666 8.466666 h -8.551333 -8.551334 z"
         id="path2466"
         inkscape:connector-curvature="0" />
      <path
         style="fill:#deecb5;stroke-width:0.08466666"
         d="m 34.201246,52.939269 c -0.500499,-0.989542 -0.909797,-1.865988 -0.909551,-1.947658 2.46e-4,-0.08167 0.168217,-0.500769 0.373268,-0.931333 1.028057,-2.158699 1.343878,-2.831087 1.41161,-3.005342 0.08237,-0.211913 0.202409,-0.245163 0.305664,-0.08467 0.03745,0.05821 0.438321,0.974597 0.890828,2.03642 l 0.822739,1.930586 -0.217638,0.482414 c -0.119701,0.265327 -0.39673,0.863413 -0.615619,1.32908 -0.218889,0.465666 -0.509004,1.103841 -0.644699,1.418166 -0.151156,0.350137 -0.29705,0.5715 -0.376661,0.5715 -0.08419,0 -0.450376,-0.633533 -1.039941,-1.799166 z m 6.073466,0.186567 c -0.03246,-0.05252 -0.02614,-0.125357 0.01404,-0.161862 0.04018,-0.0365 0.872707,-0.112112 1.850059,-0.168015 0.977352,-0.0559 1.782726,-0.10844 1.78972,-0.116749 0.01762,-0.02094 -1.052772,-2.518291 -1.162933,-2.713257 -0.04915,-0.08698 -0.05708,-0.190428 -0.01763,-0.22988 0.03945,-0.03945 0.734607,-0.322105 1.544788,-0.628116 1.001215,-0.378166 1.500715,-0.528723 1.559408,-0.47003 0.04749,0.04749 0.06984,0.100035 0.04966,0.11676 -0.02018,0.01672 -0.665339,0.27101 -1.433689,0.565082 -0.76835,0.294072 -1.40806,0.54291 -1.421579,0.552972 -0.01352,0.01006 0.243658,0.636665 0.571501,1.39245 0.327843,0.755785 0.596078,1.440538 0.596078,1.521673 0,0.13237 -0.184758,0.158154 -1.799166,0.251086 -0.989542,0.05696 -1.862636,0.121524 -1.940208,0.14347 -0.07757,0.02195 -0.167599,-0.0031 -0.200057,-0.05558 z m -3.038693,-7.612071 c -1.696827,-0.683743 -2.04794,-3.195196 -0.62119,-4.443282 1.254332,-1.097258 2.934897,-0.734012 3.686757,0.796877 0.191551,0.390024 0.229557,0.57955 0.229557,1.144743 0,1.063901 -0.446461,1.892516 -1.284229,2.383481 -0.525014,0.307679 -1.411351,0.359769 -2.010895,0.118181 z"
         id="path2464"
         inkscape:connector-curvature="0" />
      <path
         style="fill:#a1a496;stroke-width:0.08466666"
         d="m 34.201395,52.917592 c -0.500089,-1.001464 -0.909252,-1.872319 -0.909252,-1.935233 0,-0.06292 0.17145,-0.464045 0.381,-0.8914 0.20955,-0.427355 0.381,-0.790454 0.381,-0.806886 0,-0.01643 0.2286,-0.508515 0.508,-1.093518 0.2794,-0.585002 0.508,-1.106298 0.508,-1.158435 0,-0.05214 0.07768,-0.08262 0.172613,-0.06774 0.137591,0.02157 0.328381,0.396391 0.940342,1.847389 0.422251,1.001183 0.787068,1.905542 0.810705,2.009687 0.03975,0.175149 -0.188766,0.725626 -1.29914,3.129508 -0.157219,0.340369 -0.285853,0.656792 -0.285853,0.703163 0,0.04637 -0.06709,0.08431 -0.149082,0.08431 -0.109523,0 -0.390346,-0.483151 -1.058333,-1.820843 z m 0.953415,-0.465157 v -1.354666 h -0.721113 -0.721113 l 0.68543,1.354666 c 0.376986,0.745067 0.701487,1.354667 0.721113,1.354667 0.01962,0 0.03568,-0.6096 0.03568,-1.354667 z m 1.050083,-0.529166 0.379429,-0.8255 h -0.630089 -0.63009 l 0.0055,1.3335 0.0055,1.333499 0.245129,-0.508 c 0.134821,-0.279399 0.415872,-0.879474 0.624558,-1.333499 z m -1.055077,-2.54 -0.005,-1.4605 -0.332365,0.677333 c -0.182801,0.372533 -0.500588,1.029758 -0.706193,1.4605 l -0.373828,0.783167 h 0.711187 0.711187 z m 1.417593,1.354666 c -0.02467,-0.05821 -0.29477,-0.696383 -0.600226,-1.418166 l -0.555375,-1.312333 -0.0024,1.100666 c -0.0013,0.605367 -0.02605,1.243542 -0.05491,1.418167 l -0.05248,0.3175 h 0.655137 c 0.491585,0 0.643939,-0.02642 0.610285,-0.105834 z m 3.688436,2.286 c 0.02489,-0.07495 0.514971,-0.135698 1.679222,-0.20816 0.904242,-0.05628 1.727384,-0.11343 1.829205,-0.127 0.176358,-0.0235 0.155667,-0.09286 -0.436735,-1.464006 -0.342025,-0.791634 -0.596783,-1.465052 -0.566129,-1.496485 0.05023,-0.0515 2.943797,-1.170515 3.026751,-1.170515 0.01906,0 0.03465,0.05342 0.03465,0.118717 0,0.0653 -0.104775,0.157325 -0.232833,0.204512 -0.736469,0.271375 -2.51804,0.960089 -2.539768,0.981816 -0.0141,0.0141 0.241673,0.650157 0.568382,1.413462 0.326709,0.763304 0.594363,1.434725 0.594784,1.492046 0.0011,0.146402 -0.195345,0.176761 -1.777232,0.274685 -1.873128,0.115954 -2.22412,0.112884 -2.180298,-0.01907 z m -3.134423,-7.599216 c -2.339126,-1.183625 -1.506959,-4.969375 1.087655,-4.948039 0.458064,0.0038 0.637931,0.05021 1.016,0.262364 2.206792,1.238316 1.482626,4.750523 -1.013836,4.91711 -0.499825,0.03335 -0.614781,0.0089 -1.089819,-0.231435 z"
         id="path2462"
         inkscape:connector-curvature="0" />
      <path
         style="fill:#9c64bd;stroke-width:0.08466666"
         d="m 34.231991,52.930793 c -0.516917,-0.998844 -0.939848,-1.858213 -0.939848,-1.90971 0,-0.195407 1.861976,-4.030762 1.967823,-4.053384 0.0723,-0.01545 0.402005,0.670622 0.944625,1.965638 l 0.833561,1.989376 -0.129275,0.320361 c -0.0711,0.176199 -0.271676,0.625161 -0.445721,0.997695 -0.174046,0.372533 -0.500009,1.076878 -0.724363,1.565211 -0.224354,0.488332 -0.4437,0.899805 -0.487436,0.914384 -0.04373,0.01458 -0.50245,-0.790729 -1.019366,-1.789571 z m 0.922819,-0.481561 v -1.442537 l -0.627183,0.01454 c -0.344951,0.008 -0.665873,0.03845 -0.713161,0.06768 -0.05094,0.03148 0.196006,0.613229 0.606017,1.427615 0.380596,0.755963 0.701518,1.37465 0.71316,1.374858 0.01164,1.69e-4 0.02117,-0.648763 0.02117,-1.442158 z m 1.439333,-1.401607 c 0,-0.02307 -0.276225,-0.03075 -0.613833,-0.01707 l -0.613834,0.02488 -0.02125,1.397 -0.02125,1.397 0.635087,-1.379934 c 0.349299,-0.758964 0.635088,-1.398808 0.635088,-1.421876 z m -1.436136,-1.410356 c 0.0018,-0.663575 0.02392,-1.349375 0.04924,-1.524 0.02532,-0.174625 0.02214,-0.3175 -0.0071,-0.3175 -0.02921,0 -0.199152,0.314325 -0.377639,0.6985 -0.751195,1.616866 -0.959929,2.061091 -1.03437,2.201333 -0.07202,0.135681 -0.01775,0.148167 0.643999,0.148167 h 0.722646 l 0.0032,-1.2065 z m 1.388782,1.016 c -0.03232,-0.104775 -0.106675,-0.28575 -0.165233,-0.402167 -0.05856,-0.116417 -0.28503,-0.649817 -0.503272,-1.185333 -0.218242,-0.535517 -0.432205,-1.009862 -0.475472,-1.0541 -0.04852,-0.0496 -0.07867,0.477745 -0.07867,1.375833 v 1.456267 h 0.640706 c 0.625402,0 0.639302,-0.0045 0.58194,-0.1905 z m 3.772688,2.36034 c 0,-0.09034 0.277634,-0.130171 1.248833,-0.179191 0.686858,-0.03467 1.503646,-0.08717 1.815083,-0.116675 l 0.56625,-0.05364 -0.585998,-1.354667 c -0.322299,-0.745066 -0.586636,-1.414911 -0.587417,-1.488544 -0.001,-0.0957 0.390907,-0.281602 1.374415,-0.651929 1.616194,-0.608555 1.56298,-0.592429 1.59782,-0.484193 0.03495,0.108585 -0.204049,0.220777 -1.562246,0.733358 -0.610704,0.230478 -1.121908,0.430587 -1.136008,0.444687 -0.0141,0.0141 0.241673,0.650157 0.568382,1.413462 0.326709,0.763304 0.594363,1.434725 0.594784,1.492046 0.0011,0.146402 -0.195345,0.176761 -1.777232,0.274685 -1.877185,0.116205 -2.116666,0.112879 -2.116666,-0.0294 z m -2.886361,-7.466037 c -0.503812,-0.155198 -1.125778,-0.707354 -1.413701,-1.255026 -0.19833,-0.377252 -0.228148,-0.533072 -0.228826,-1.195777 -7.2e-4,-0.704041 0.02072,-0.801625 0.28181,-1.282961 0.469387,-0.865327 1.181515,-1.316994 2.088077,-1.324363 0.61588,-0.005 1.136823,0.209177 1.588211,0.652987 0.404111,0.397328 0.612971,0.808035 0.740465,1.456074 0.08504,0.432255 0.07931,0.598401 -0.03621,1.049326 -0.170042,0.663739 -0.372698,0.998025 -0.870884,1.436546 -0.61889,0.544768 -1.363272,0.705216 -2.148937,0.463194 z"
         id="path2460"
         inkscape:connector-curvature="0" />
      <path
         style="fill:#f16463;stroke-width:0.08466666"
         d="m 34.231991,52.930793 c -0.516917,-0.998844 -0.939848,-1.858213 -0.939848,-1.90971 0,-0.195407 1.861976,-4.030762 1.967823,-4.053384 0.0723,-0.01545 0.402005,0.670622 0.944625,1.965638 l 0.833561,1.989376 -0.129275,0.320361 c -0.0711,0.176199 -0.271676,0.625161 -0.445721,0.997695 -0.174046,0.372533 -0.500009,1.076878 -0.724363,1.565211 -0.224354,0.488332 -0.4437,0.899805 -0.487436,0.914384 -0.04373,0.01458 -0.50245,-0.790729 -1.019366,-1.789571 z m 0.922819,-0.481561 v -1.442537 l -0.627183,0.01454 c -0.344951,0.008 -0.665873,0.03845 -0.713161,0.06768 -0.05094,0.03148 0.196006,0.613229 0.606017,1.427615 0.380596,0.755963 0.701518,1.37465 0.71316,1.374858 0.01164,1.69e-4 0.02117,-0.648763 0.02117,-1.442158 z m 1.439333,-1.401607 c 0,-0.02307 -0.276225,-0.03075 -0.613833,-0.01707 l -0.613834,0.02488 -0.02125,1.397 -0.02125,1.397 0.635087,-1.379934 c 0.349299,-0.758964 0.635088,-1.398808 0.635088,-1.421876 z m -1.436136,-1.410356 c 0.0018,-0.663575 0.02392,-1.349375 0.04924,-1.524 0.02532,-0.174625 0.02214,-0.3175 -0.0071,-0.3175 -0.02921,0 -0.199152,0.314325 -0.377639,0.6985 -0.751195,1.616866 -0.959929,2.061091 -1.03437,2.201333 -0.07202,0.135681 -0.01775,0.148167 0.643999,0.148167 h 0.722646 l 0.0032,-1.2065 z m 1.388782,1.016 c -0.03232,-0.104775 -0.106675,-0.28575 -0.165233,-0.402167 -0.05856,-0.116417 -0.28503,-0.649817 -0.503272,-1.185333 -0.218242,-0.535517 -0.432205,-1.009862 -0.475472,-1.0541 -0.04852,-0.0496 -0.07867,0.477745 -0.07867,1.375833 v 1.456267 h 0.640706 c 0.625402,0 0.639302,-0.0045 0.58194,-0.1905 z m 0.886327,-5.105697 c -0.503812,-0.155198 -1.125778,-0.707354 -1.413701,-1.255026 -0.19833,-0.377252 -0.228148,-0.533072 -0.228826,-1.195777 -7.2e-4,-0.704041 0.02072,-0.801625 0.28181,-1.282961 0.469387,-0.865327 1.181515,-1.316994 2.088077,-1.324363 0.61588,-0.005 1.136823,0.209177 1.588211,0.652987 0.404111,0.397328 0.612971,0.808035 0.740465,1.456074 0.08504,0.432255 0.07931,0.598401 -0.03621,1.049326 -0.170042,0.663739 -0.372698,0.998025 -0.870884,1.436546 -0.61889,0.544768 -1.363272,0.705216 -2.148937,0.463194 z"
         id="path2458"
         inkscape:connector-curvature="0" />
      <path
         style="fill:#ed5b5a;stroke-width:0.08466666"
         d="m 34.231991,52.930793 c -0.516917,-0.998844 -0.939848,-1.858213 -0.939848,-1.90971 0,-0.195407 1.861976,-4.030762 1.967823,-4.053384 0.0723,-0.01545 0.402005,0.670622 0.944625,1.965638 l 0.833561,1.989376 -0.129275,0.320361 c -0.0711,0.176199 -0.271676,0.625161 -0.445721,0.997695 -0.174046,0.372533 -0.500009,1.076878 -0.724363,1.565211 -0.224354,0.488332 -0.4437,0.899805 -0.487436,0.914384 -0.04373,0.01458 -0.50245,-0.790729 -1.019366,-1.789571 z m 0.922819,-0.481561 v -1.442537 l -0.627183,0.01454 c -0.344951,0.008 -0.665873,0.03845 -0.713161,0.06768 -0.05094,0.03148 0.196006,0.613229 0.606017,1.427615 0.380596,0.755963 0.701518,1.37465 0.71316,1.374858 0.01164,1.69e-4 0.02117,-0.648763 0.02117,-1.442158 z m 1.439333,-1.401607 c 0,-0.02307 -0.276225,-0.03075 -0.613833,-0.01707 l -0.613834,0.02488 -0.02125,1.397 -0.02125,1.397 0.635087,-1.379934 c 0.349299,-0.758964 0.635088,-1.398808 0.635088,-1.421876 z m -1.436136,-1.410356 c 0.0018,-0.663575 0.02392,-1.349375 0.04924,-1.524 0.02532,-0.174625 0.02214,-0.3175 -0.0071,-0.3175 -0.02921,0 -0.199152,0.314325 -0.377639,0.6985 -0.751195,1.616866 -0.959929,2.061091 -1.03437,2.201333 -0.07202,0.135681 -0.01775,0.148167 0.643999,0.148167 h 0.722646 l 0.0032,-1.2065 z m 1.388782,1.016 c -0.03232,-0.104775 -0.106675,-0.28575 -0.165233,-0.402167 -0.05856,-0.116417 -0.28503,-0.649817 -0.503272,-1.185333 -0.218242,-0.535517 -0.432205,-1.009862 -0.475472,-1.0541 -0.04852,-0.0496 -0.07867,0.477745 -0.07867,1.375833 v 1.456267 h 0.640706 c 0.625402,0 0.639302,-0.0045 0.58194,-0.1905 z m 0.886327,-5.105697 c -0.503812,-0.155198 -1.125778,-0.707354 -1.413701,-1.255026 -0.19833,-0.377252 -0.228148,-0.533072 -0.228826,-1.195777 -7.2e-4,-0.704041 0.02072,-0.801625 0.28181,-1.282961 0.469387,-0.865327 1.181515,-1.316994 2.088077,-1.324363 0.61588,-0.005 1.136823,0.209177 1.588211,0.652987 0.404111,0.397328 0.612971,0.808035 0.740465,1.456074 0.08504,0.432255 0.07931,0.598401 -0.03621,1.049326 -0.170042,0.663739 -0.372698,0.998025 -0.870884,1.436546 -0.61889,0.544768 -1.363272,0.705216 -2.148937,0.463194 z m 1.216937,-0.328819 c 0.39804,-0.142004 0.908564,-0.485308 0.853703,-0.574075 -0.02252,-0.03643 0.0017,-0.06624 0.05372,-0.06624 0.05206,0 0.07111,-0.0381 0.04233,-0.08467 -0.02878,-0.04657 -0.01198,-0.08467 0.03734,-0.08467 0.04931,0 0.08966,-0.04089 0.08966,-0.09088 0,-0.204951 -0.298508,-0.0178 -0.349164,0.218908 -0.05383,0.251546 -0.05419,0.251687 -0.06415,0.02513 -0.0055,-0.12531 -0.04491,-0.249401 -0.08755,-0.275757 -0.04318,-0.02669 -0.06807,0.100819 -0.05616,0.287788 0.01176,0.18464 -0.0062,0.318675 -0.03987,0.297856 -0.03369,-0.02082 -0.108329,0.01888 -0.165874,0.08822 -0.122318,0.147384 -0.337893,0.168019 -0.337893,0.03234 0,-0.05212 -0.0617,-0.07005 -0.138975,-0.04039 -0.116203,0.04459 -0.121441,0.0322 -0.03197,-0.07561 0.117974,-0.142149 0.296696,-0.179248 0.213275,-0.04427 -0.02878,0.04657 0.02837,0.08467 0.127,0.08467 0.113991,0 0.157317,-0.03561 0.118915,-0.09775 -0.03696,-0.05981 -0.02327,-0.0748 0.03527,-0.03862 0.0667,0.04122 0.08689,-0.04457 0.06665,-0.283251 -0.02117,-0.249641 0.0028,-0.342384 0.08855,-0.342384 0.06467,0 0.162137,-0.09779 0.216595,-0.217315 0.06759,-0.148347 0.147626,-0.204603 0.252185,-0.17726 0.08424,0.02203 0.15317,0.01 0.15317,-0.02681 0,-0.03678 -0.08573,-0.08991 -0.1905,-0.118065 -0.188783,-0.05074 -0.188275,-0.05299 0.0564,-0.250186 0.165324,-0.133242 0.214278,-0.219147 0.148167,-0.260006 -0.05907,-0.03651 -0.09873,-0.008 -0.09873,0.07098 0,0.09035 -0.07347,0.128359 -0.232833,0.120467 -0.199631,-0.0099 -0.205668,-0.01676 -0.04233,-0.04822 0.116623,-0.02246 0.1905,-0.09814 0.1905,-0.19514 0,-0.08715 0.0381,-0.181995 0.08467,-0.210775 0.04657,-0.02878 0.08408,-0.0977 0.08337,-0.153163 -7.79e-4,-0.06059 -0.03406,-0.05015 -0.08337,0.02616 -0.04931,0.07631 -0.08259,0.08675 -0.08337,0.02616 -7.13e-4,-0.05546 0.0368,-0.124384 0.08337,-0.153164 0.143232,-0.08852 0.10055,-0.465666 -0.0527,-0.465666 -0.114182,0 -0.119075,0.02204 -0.02899,0.130588 0.07451,0.08978 0.08107,0.157899 0.02098,0.217991 -0.06009,0.06009 -0.108399,-0.01378 -0.154596,-0.236422 -0.03696,-0.178103 -0.06078,-0.352399 -0.05294,-0.387324 0.0078,-0.03492 -0.01971,-0.0635 -0.06122,-0.0635 -0.04151,0 -0.136452,0.1524 -0.210982,0.338667 -0.07453,0.186266 -0.178581,0.338666 -0.231226,0.338666 -0.0662,0 -0.0627,-0.03979 0.01138,-0.129046 0.0589,-0.07098 0.08055,-0.155597 0.0481,-0.188048 -0.03245,-0.03245 -0.08589,-0.0155 -0.118747,0.03767 -0.03286,0.05317 -0.164137,0.12287 -0.291729,0.154893 -0.127592,0.03202 -0.231986,0.108996 -0.231986,0.171049 0,0.16901 -0.177941,0.245855 -0.260501,0.112499 -0.0537,-0.08674 0.04731,-0.177186 0.393705,-0.352509 0.256267,-0.129705 0.507526,-0.210127 0.558353,-0.178714 0.05321,0.03288 0.07672,0.01004 0.05543,-0.05384 -0.02034,-0.06103 -0.120517,-0.117112 -0.22261,-0.124633 -0.102093,-0.0075 -0.214217,-0.04383 -0.249165,-0.08068 -0.03495,-0.03685 0.02237,-0.04059 0.127376,-0.0083 0.139528,0.04289 0.206185,0.0189 0.247639,-0.08913 0.05239,-0.136535 0.06185,-0.135365 0.123966,0.01533 0.0528,0.128105 0.06326,0.110499 0.0487,-0.08198 -0.0109,-0.144021 0.02876,-0.261643 0.09617,-0.285184 0.0832,-0.02906 0.09908,0.0092 0.05779,0.139286 -0.06004,0.18916 0.07874,0.2561 0.152415,0.07352 0.02592,-0.06424 0.04533,-0.04865 0.04939,0.03968 0.0043,0.09336 0.0522,0.128044 0.133684,0.09678 0.07279,-0.02793 0.131169,3.05e-4 0.136766,0.06616 0.0054,0.06319 0.01862,0.152991 0.02944,0.199558 0.01082,0.04657 0.02548,0.13454 0.03257,0.195497 0.0073,0.06279 0.05877,0.08493 0.118729,0.05108 0.08467,-0.0478 0.08467,-0.03695 0,0.05427 -0.131614,0.141796 -0.136926,0.256397 -0.01058,0.228321 0.05239,-0.01164 0.112439,0.03598 0.133446,0.105833 0.03027,0.10065 0.02174,0.103568 -0.04113,0.01407 -0.06325,-0.09004 -0.09128,-0.08178 -0.138291,0.04072 -0.03282,0.08551 -0.01903,0.16696 0.03108,0.183664 0.04952,0.01651 0.0623,0.07438 0.02839,0.128615 -0.0339,0.05423 -0.06856,0.136701 -0.07701,0.183268 -0.0085,0.04657 -0.04217,0.151342 -0.07494,0.232833 -0.03528,0.08776 -0.02136,0.148167 0.03415,0.148167 0.05155,0 0.09372,-0.0594 0.09372,-0.131997 0,-0.0726 0.04017,-0.10717 0.08927,-0.07683 0.05917,0.03657 0.04371,0.124706 -0.04585,0.261388 -0.07431,0.11342 -0.113864,0.240609 -0.08789,0.282643 0.02598,0.04203 0.0085,0.100356 -0.03881,0.129605 -0.09987,0.06172 -0.115909,0.212669 -0.02255,0.212203 0.03493,-1.78e-4 0.136097,-0.176818 0.224826,-0.39254 0.132239,-0.321502 0.14256,-0.422271 0.05725,-0.558876 -0.06071,-0.09721 -0.06619,-0.14324 -0.01316,-0.110463 0.05945,0.03674 0.09063,-0.07009 0.09009,-0.30864 -0.0016,-0.705555 -0.562848,-1.541012 -1.261014,-1.877105 -0.335808,-0.161656 -1.113794,-0.184557 -1.261226,-0.03712 -0.05588,0.05588 -0.1016,0.07395 -0.1016,0.04016 0,-0.08782 -0.424184,0.150423 -0.6985,0.392305 -0.213198,0.187991 -0.335741,0.470863 -0.155807,0.359658 0.121634,-0.07517 0.351164,0.04494 0.291067,0.152316 -0.03279,0.05858 -0.0091,0.05507 0.05975,-0.0089 0.08868,-0.08231 0.09144,-0.128411 0.01242,-0.207433 -0.23256,-0.23256 -0.07963,-0.217544 0.164957,0.0162 0.277017,0.264732 0.410776,0.318484 0.410776,0.165073 0,-0.04931 0.0381,-0.06612 0.08467,-0.03734 0.126422,0.07813 0.102424,0.186736 -0.05458,0.246983 -0.0783,0.03005 -0.208001,-0.0088 -0.296333,-0.08873 -0.145351,-0.131541 -0.157089,-0.131693 -0.157089,-0.002 0,0.07707 0.05715,0.140123 0.127,0.140123 0.06985,0 0.127,0.0381 0.127,0.08467 0,0.116838 -0.09721,0.101818 -0.291341,-0.04502 -0.129037,-0.0976 -0.178775,-0.101568 -0.231537,-0.01847 -0.101284,0.159512 -0.08071,0.29427 0.02262,0.14816 0.07305,-0.103298 0.08368,-0.104286 0.05691,-0.0053 -0.0181,0.06694 -0.08319,0.138469 -0.144639,0.158953 -0.08097,0.02699 -0.10145,-0.03283 -0.07438,-0.217274 0.02727,-0.185796 -0.0062,-0.281735 -0.124052,-0.355319 -0.08877,-0.05544 -0.170046,-0.08864 -0.180604,-0.07377 -0.274801,0.386965 -0.426378,1.298469 -0.296646,1.783867 0.08178,0.305974 0.148621,0.357835 0.412446,0.320004 0.105637,-0.01515 0.106062,0.0022 0.0031,0.126253 -0.07318,0.08818 -0.131467,0.107468 -0.15067,0.04986 -0.01722,-0.05167 -0.06496,-0.09395 -0.106072,-0.09395 -0.10689,0 0.248427,0.578121 0.415147,0.675465 0.07666,0.04476 0.101286,0.0829 0.05472,0.08476 -0.145597,0.0058 0.65153,0.449403 0.925211,0.514877 0.386446,0.09245 0.564735,0.08428 0.919032,-0.04212 z m -1.061077,-0.103724 c 0.05821,-0.02349 0.153459,-0.02349 0.211667,0 0.05821,0.02349 0.01058,0.0427 -0.105833,0.0427 -0.116417,0 -0.164042,-0.01922 -0.105834,-0.0427 z M 37.32032,45.012303 c -0.02582,-0.04177 0.03267,-0.09677 0.129961,-0.122209 0.0973,-0.02544 0.154803,-0.08201 0.127796,-0.125713 -0.07136,-0.115463 0.648931,-0.195923 0.751733,-0.08397 0.05876,0.06399 0.05056,0.07285 -0.0268,0.02897 -0.06666,-0.03782 -0.155332,-0.0032 -0.22059,0.086 -0.06135,0.0839 -0.16583,0.127474 -0.238647,0.09953 -0.07124,-0.02734 -0.207596,0.005 -0.303019,0.07182 -0.09542,0.06684 -0.194618,0.08734 -0.220434,0.04557 z m -0.419611,-0.378886 c -0.02264,-0.08618 -0.0814,-0.131823 -0.130564,-0.101436 -0.05429,0.03356 -0.06967,0.0038 -0.03916,-0.07566 0.02763,-0.072 0.09082,-0.10583 0.140418,-0.07518 0.05402,0.03339 0.07117,0.0062 0.04276,-0.06784 -0.03057,-0.07967 0.0094,-0.127855 0.112612,-0.135627 0.08996,-0.0068 0.160031,0.04256 0.160031,0.112662 0,0.09848 0.03562,0.105653 0.169333,0.03409 0.13642,-0.07301 0.169333,-0.177277 0.169333,-0.536433 0,-0.497436 0.126747,-0.835572 0.370195,-0.987608 0.138926,-0.08676 0.154476,-0.08086 0.107748,0.04091 -0.03003,0.07827 -0.05461,0.177293 -0.05461,0.220051 0,0.04276 -0.06668,0.07832 -0.148167,0.07904 -0.128077,0.0011 -0.130947,0.01368 -0.02117,0.09265 0.107198,0.07711 0.103898,0.08393 -0.02117,0.04369 -0.171023,-0.05502 -0.194169,0.03649 -0.04657,0.184089 0.07902,0.07902 0.07902,0.124178 0,0.2032 -0.165137,0.165137 -0.117127,0.42326 0.125907,0.676934 0.125129,0.130606 0.188184,0.237466 0.140122,0.237466 -0.04806,0 -0.156624,-0.07651 -0.241249,-0.170019 -0.142986,-0.157998 -0.164673,-0.160238 -0.306731,-0.03168 -0.110477,0.09998 -0.131148,0.178924 -0.07455,0.284685 0.06621,0.123715 0.04031,0.144976 -0.167524,0.13751 -0.163218,-0.0059 -0.259679,-0.06149 -0.287012,-0.165518 z m 1.471434,-0.144645 c 0,-0.04931 -0.0343,-0.06847 -0.07622,-0.04256 -0.04192,0.02591 -0.19432,-0.05653 -0.338667,-0.183191 -0.265925,-0.233345 -0.344077,-0.446587 -0.163671,-0.446587 0.05433,0 0.07371,0.02507 0.04307,0.05571 -0.08463,0.08463 0.113098,0.282957 0.282118,0.282957 0.08208,0 0.211639,0.09525 0.287918,0.211666 0.07628,0.116417 0.09971,0.211667 0.05207,0.211667 -0.04764,0 -0.08662,-0.04035 -0.08662,-0.08966 z m 0.254,-0.164336 c 0,-0.192519 0.212334,-0.230702 0.281441,-0.05061 0.05313,0.138467 -0.0093,0.219944 -0.168552,0.219944 -0.06209,0 -0.112889,-0.0762 -0.112889,-0.169334 z m -2.067264,0.01144 c -0.03311,-0.05357 -0.0022,-0.155364 0.0686,-0.226204 0.07084,-0.07084 0.107293,-0.184848 0.08101,-0.253351 -0.02629,-0.0685 -0.0088,-0.12455 0.03888,-0.12455 0.04767,0 0.105495,0.04763 0.128504,0.105834 0.02301,0.05821 0.03926,-0.141817 0.03612,-0.4445 -0.0036,-0.342127 -0.02668,-0.470254 -0.06114,-0.338667 l -0.05542,0.211667 -0.103624,-0.1905 c -0.05699,-0.104775 -0.168958,-0.192915 -0.248811,-0.195867 -0.100317,-0.0037 -0.08148,-0.03082 0.06095,-0.08772 0.113377,-0.0453 0.256252,-0.06313 0.3175,-0.03962 0.06125,0.0235 0.111361,-0.0086 0.111361,-0.07124 0,-0.189678 0.244086,-0.347824 0.359188,-0.232722 0.07424,0.07424 0.06769,0.09801 -0.02699,0.09801 -0.09478,0 -0.117194,0.08189 -0.09271,0.338667 0.02187,0.229362 -0.0014,0.338666 -0.07203,0.338666 -0.07432,0 -0.09251,0.123048 -0.06323,0.427787 0.03222,0.335318 0.01648,0.418338 -0.0728,0.384076 -0.06531,-0.02506 -0.163239,0.05044 -0.229532,0.176968 -0.07464,0.142463 -0.136961,0.186155 -0.175824,0.123274 z m 0.627931,-0.260441 c 0,-0.04382 0.0381,-0.103217 0.08467,-0.131997 0.04657,-0.02878 0.08467,0.0071 0.08467,0.07967 0,0.0726 -0.0381,0.131997 -0.08467,0.131997 -0.04657,0 -0.08467,-0.03585 -0.08467,-0.07967 z m 1.1439,-0.11083 c -0.05182,-0.161334 -0.06724,-0.167815 -0.100749,-0.04233 -0.02176,0.08149 -0.09392,0.148167 -0.160359,0.148167 -0.157148,0 -0.154194,-0.120879 0.0062,-0.254 0.160952,-0.133578 0.163201,-0.372555 0.0047,-0.504062 -0.09503,-0.07887 -0.101904,-0.146131 -0.03087,-0.302043 0.127082,-0.278915 0.319918,-0.337765 0.332276,-0.101404 0.009,0.172232 0.01328,0.17377 0.05144,0.01851 0.02289,-0.09313 0.08515,-0.224092 0.138345,-0.291019 0.07958,-0.100117 0.06671,-0.110483 -0.07261,-0.05848 -0.137601,0.05136 -0.149105,0.04283 -0.06139,-0.04553 0.08581,-0.08643 0.142005,-0.08746 0.274018,-0.005 0.249462,0.155791 0.318797,0.128534 0.379823,-0.149316 0.05947,-0.270749 0.211879,-0.432283 0.211879,-0.224559 0,0.06879 0.02264,0.194863 0.05032,0.280163 0.04087,0.125972 0.03378,0.131692 -0.03778,0.03046 -0.07756,-0.109725 -0.09233,-0.109725 -0.123472,0 -0.131017,0.461605 -0.19464,0.844294 -0.140365,0.844294 0.105104,0 0.169847,0.254031 0.117698,0.461811 -0.03462,0.13792 -0.1103,0.194356 -0.260643,0.194356 -0.233359,0 -0.296555,-0.101969 -0.316416,-0.510547 -0.01203,-0.24737 -0.0405,-0.274742 -0.307465,-0.295528 l -0.294212,-0.02291 0.232833,0.148352 c 0.23529,0.149917 0.303688,0.278465 0.148167,0.278465 -0.04657,0 -0.08467,0.04035 -0.08467,0.08966 0,0.04931 0.03377,0.06879 0.07504,0.04329 0.06476,-0.04002 0.174305,0.20409 0.177803,0.396218 0.0026,0.143857 -0.152877,0.04964 -0.20961,-0.127 z m 0.55073,-0.211667 c 9.93e-4,-0.113528 0.01804,-0.121752 0.07292,-0.03518 0.05462,0.08617 0.08239,0.07184 0.116963,-0.06039 0.02534,-0.09689 -0.0077,-0.217379 -0.07483,-0.273111 -0.06709,-0.05568 -0.09818,-0.169009 -0.07039,-0.25658 0.03732,-0.1176 0.01662,-0.144121 -0.08276,-0.105988 -0.0885,0.03396 -0.132536,0.0026 -0.132536,-0.09426 0,-0.09421 0.04455,-0.12802 0.127,-0.09638 0.06985,0.0268 0.127,0.01591 0.127,-0.02422 0,-0.04012 -0.05837,-0.09535 -0.129711,-0.122725 -0.202611,-0.07775 -0.33289,0.343152 -0.159791,0.51625 0.09522,0.09522 0.118709,0.216305 0.08098,0.417434 -0.03274,0.17451 -0.01916,0.283307 0.03536,0.283307 0.04868,0 0.08909,-0.06667 0.0898,-0.148167 z m -2.541297,-0.02117 c 0,-0.04657 0.0381,-0.08467 0.08467,-0.08467 0.04657,0 0.08467,0.0381 0.08467,0.08467 0,0.04657 -0.0381,0.08467 -0.08467,0.08467 -0.04657,0 -0.08467,-0.0381 -0.08467,-0.08467 z m 1.561774,-0.09204 c -0.03129,-0.05062 -0.01449,-0.134444 0.03734,-0.186266 0.06919,-0.06919 0.09422,-0.04473 0.09422,0.09204 0,0.204428 -0.04398,0.235927 -0.131559,0.09422 z m -1.335262,-0.04833 c -0.06409,-0.0641 0.09616,-0.282957 0.207188,-0.282957 0.04087,0 0.0743,0.0762 0.0743,0.169333 0,0.162701 -0.165575,0.229536 -0.281488,0.113624 z m -0.311179,-0.118621 c 0,-0.04931 0.0381,-0.06612 0.08467,-0.03734 0.04657,0.02878 0.08467,0.06913 0.08467,0.08966 0,0.02054 -0.0381,0.03734 -0.08467,0.03734 -0.04657,0 -0.08467,-0.04035 -0.08467,-0.08966 z m 0.08467,-0.291336 c 0,-0.06985 0.03402,-0.127 0.07561,-0.127 0.04158,0 0.09754,0.05715 0.124343,0.127 0.02969,0.07736 1.36e-4,0.127 -0.07561,0.127 -0.06839,0 -0.124343,-0.05715 -0.124343,-0.127 z m 1.293824,-0.486833 c 0.03054,-0.08149 0.01982,-0.148167 -0.02382,-0.148167 -0.04364,0 -0.05742,-0.05715 -0.03062,-0.127 0.0268,-0.06985 0.08684,-0.127 0.133402,-0.127 0.04657,0 0.06368,0.05469 0.03803,0.12153 -0.02565,0.06684 -0.0065,0.134909 0.04256,0.151261 0.04906,0.01635 0.02073,0.08549 -0.06294,0.153637 -0.136574,0.111231 -0.146456,0.108749 -0.09661,-0.02426 z m -1.331294,-0.05563 c -0.05762,-0.09323 0.03219,-0.350238 0.171818,-0.491669 0.07934,-0.08036 0.112459,-0.06188 0.151748,0.08467 0.07425,0.276951 0.06763,0.300448 -0.111624,0.396383 -0.09674,0.05177 -0.183812,0.05613 -0.211942,0.01062 z m 0.29147,-0.261869 c 0,-0.04657 -0.0381,-0.08467 -0.08467,-0.08467 -0.04657,0 -0.08467,0.0381 -0.08467,0.08467 0,0.04657 0.0381,0.08467 0.08467,0.08467 0.04657,0 0.08467,-0.0381 0.08467,-0.08467 z m 1.24408,-0.13881 c -0.107954,-0.107953 0.04116,-0.199258 0.242776,-0.148656 0.119612,0.03002 0.206477,0.01482 0.206477,-0.03613 0,-0.04838 -0.08572,-0.104468 -0.1905,-0.124648 l -0.1905,-0.03669 0.187843,-0.01153 c 0.140967,-0.0087 0.174435,-0.04851 0.134112,-0.159697 -0.03377,-0.09312 0.01259,-0.06953 0.124802,0.0635 l 0.178533,0.211667 -0.185645,0.146284 c -0.19047,0.150086 -0.411905,0.1919 -0.507898,0.09591 z m -0.603686,-0.63994 c -0.130097,-0.184562 -0.128004,-0.196395 0.03938,-0.222626 0.142424,-0.02232 0.157349,-0.05111 0.0768,-0.148166 -0.05499,-0.06626 -0.06674,-0.123379 -0.02611,-0.126942 0.04063,-0.0036 0.13119,-0.01787 0.201251,-0.03179 0.159696,-0.03173 0.370848,0.177483 0.252774,0.250457 -0.0461,0.02849 -0.08382,0.01146 -0.08382,-0.03786 0,-0.04931 -0.0381,-0.08966 -0.08467,-0.08966 -0.04657,0 -0.08467,0.05398 -0.08467,0.119945 0,0.06597 -0.04762,0.139161 -0.105833,0.162649 -0.06068,0.02448 -0.03961,0.04556 0.04939,0.04939 0.08537,0.0037 0.140141,0.05193 0.121708,0.107226 -0.06017,0.180522 -0.216017,0.166251 -0.3562,-0.03262 z m 0.46027,0.01674 c -0.04984,-0.09313 -0.0588,-0.169334 -0.01991,-0.169334 0.09002,0 0.273912,0.181892 0.273912,0.270934 0,0.131416 -0.164511,0.06561 -0.254,-0.1016 z m 0.73899,-0.115032 c 0.02591,-0.135542 -0.0089,-0.217767 -0.108383,-0.255938 -0.118493,-0.04547 -0.127638,-0.03344 -0.04776,0.06281 0.07729,0.09313 0.06917,0.130422 -0.03728,0.171271 -0.226997,0.08711 -0.305496,0.05957 -0.273529,-0.09595 0.01675,-0.08149 -0.02808,-0.194046 -0.09963,-0.25012 -0.103688,-0.08127 -0.02118,-0.09226 0.406625,-0.05416 0.295188,0.02629 0.620075,0.07217 0.72197,0.101955 0.183631,0.05368 0.183808,0.0556 0.02009,0.217026 -0.124727,0.122988 -0.152513,0.129887 -0.113482,0.02817 0.0306,-0.07975 -7.62e-4,-0.154819 -0.07689,-0.184032 -0.235192,-0.09025 -0.31863,-0.05096 -0.152078,0.07161 0.152845,0.112486 0.154011,0.12496 0.01667,0.178205 -0.08122,0.03149 -0.1266,0.09136 -0.100836,0.133047 0.02576,0.04169 -0.0073,0.07579 -0.07341,0.07579 -0.0807,0 -0.107698,-0.06569 -0.08208,-0.199698 z m 1.289043,2.532811 c 0.08313,-0.100165 0.06972,-0.119831 -0.0743,-0.108982 -0.179207,0.0135 -0.220319,0.07373 -0.119289,0.174758 0.07531,0.07531 0.07696,0.07475 0.193589,-0.06578 z"
         id="path2456"
         inkscape:connector-curvature="0" />
      <path
         style="fill:#8b946e;stroke-width:0.08466666"
         d="m 34.231991,52.930793 c -0.516917,-0.998844 -0.939848,-1.858213 -0.939848,-1.90971 0,-0.195407 1.861976,-4.030762 1.967823,-4.053384 0.0723,-0.01545 0.402005,0.670622 0.944625,1.965638 l 0.833561,1.989376 -0.129275,0.320361 c -0.0711,0.176199 -0.271676,0.625161 -0.445721,0.997695 -0.174046,0.372533 -0.500009,1.076878 -0.724363,1.565211 -0.224354,0.488332 -0.4437,0.899805 -0.487436,0.914384 -0.04373,0.01458 -0.50245,-0.790729 -1.019366,-1.789571 z m 0.922819,-0.481561 v -1.442537 l -0.627183,0.01454 c -0.344951,0.008 -0.665873,0.03845 -0.713161,0.06768 -0.05094,0.03148 0.196006,0.613229 0.606017,1.427615 0.380596,0.755963 0.701518,1.37465 0.71316,1.374858 0.01164,1.69e-4 0.02117,-0.648763 0.02117,-1.442158 z m 1.439333,-1.401607 c 0,-0.02307 -0.276225,-0.03075 -0.613833,-0.01707 l -0.613834,0.02488 -0.02125,1.397 -0.02125,1.397 0.635087,-1.379934 c 0.349299,-0.758964 0.635088,-1.398808 0.635088,-1.421876 z m -1.436136,-1.410356 c 0.0018,-0.663575 0.02392,-1.349375 0.04924,-1.524 0.02532,-0.174625 0.02214,-0.3175 -0.0071,-0.3175 -0.02921,0 -0.199152,0.314325 -0.377639,0.6985 -0.751195,1.616866 -0.959929,2.061091 -1.03437,2.201333 -0.07202,0.135681 -0.01775,0.148167 0.643999,0.148167 h 0.722646 l 0.0032,-1.2065 z m 1.388782,1.016 c -0.03232,-0.104775 -0.106675,-0.28575 -0.165233,-0.402167 -0.05856,-0.116417 -0.28503,-0.649817 -0.503272,-1.185333 -0.218242,-0.535517 -0.432205,-1.009862 -0.475472,-1.0541 -0.04852,-0.0496 -0.07867,0.477745 -0.07867,1.375833 v 1.456267 h 0.640706 c 0.625402,0 0.639302,-0.0045 0.58194,-0.1905 z m 0.886327,-5.105697 c -0.503812,-0.155198 -1.125778,-0.707354 -1.413701,-1.255026 -0.19833,-0.377252 -0.228148,-0.533072 -0.228826,-1.195777 -7.2e-4,-0.704041 0.02072,-0.801625 0.28181,-1.282961 0.469387,-0.865327 1.181515,-1.316994 2.088077,-1.324363 0.61588,-0.005 1.136823,0.209177 1.588211,0.652987 0.404111,0.397328 0.612971,0.808035 0.740465,1.456074 0.08504,0.432255 0.07931,0.598401 -0.03621,1.049326 -0.170042,0.663739 -0.372698,0.998025 -0.870884,1.436546 -0.61889,0.544768 -1.363272,0.705216 -2.148937,0.463194 z m 1.682324,-0.515114 c 0.219659,-0.127351 0.486328,-0.396852 0.677333,-0.684527 0.284823,-0.428973 0.317935,-0.538299 0.345256,-1.139912 0.06504,-1.432109 -0.713491,-2.354916 -1.986726,-2.354916 -1.152636,0 -2.060341,0.991381 -2.063928,2.254188 -0.0048,1.677627 1.645424,2.726775 3.028065,1.925167 z"
         id="path2454"
         inkscape:connector-curvature="0" />
      <path
         style="fill:#1e160f;stroke-width:0.08466666"
         d="m 34.224239,52.877292 -0.931308,-1.861143 0.200776,-0.446024 c 0.110427,-0.245312 0.344272,-0.750823 0.519656,-1.123356 0.175384,-0.372534 0.502674,-1.077383 0.727309,-1.566333 0.224636,-0.48895 0.456908,-0.889 0.516159,-0.889 0.06028,0 0.475615,0.870977 0.942958,1.97742 l 0.835227,1.97742 -0.766166,1.663246 c -0.421392,0.914786 -0.805396,1.768021 -0.853342,1.89608 -0.04795,0.128058 -0.126051,0.232833 -0.173568,0.232833 -0.04752,0 -0.505482,-0.837514 -1.017701,-1.861143 z m 0.941863,-1.716023 c -0.02658,-0.126861 -0.133111,-0.148167 -0.740834,-0.148167 -0.413035,0 -0.709792,0.03512 -0.709792,0.08401 0,0.0462 0.314325,0.71435 0.6985,1.484771 l 0.6985,1.400762 0.04233,-1.336603 c 0.02328,-0.735133 0.02836,-1.403279 0.01129,-1.48477 z m 0.830422,1.301918 c 0.32869,-0.713556 0.597619,-1.331735 0.597619,-1.37373 0,-0.042 -0.28575,-0.07635 -0.635,-0.07635 h -0.635 v 1.411111 c 0,0.776111 0.01682,1.39429 0.03738,1.37373 0.02056,-0.02056 0.306309,-0.621199 0.635,-1.334756 z m -0.794695,-1.643431 c 0.02294,-0.05977 0.03127,-0.793199 0.01851,-1.629834 -0.01871,-1.22729 -0.04204,-1.480262 -0.120764,-1.309486 -0.05366,0.116416 -0.363744,0.768356 -0.689068,1.448756 -0.843125,1.763358 -0.845341,1.599243 0.02159,1.599243 0.514488,0 0.740262,-0.03188 0.769734,-0.108679 z m 1.392314,-0.0071 c 0,-0.134851 -1.093228,-2.766342 -1.198818,-2.885655 -0.03915,-0.04424 -0.07118,0.612987 -0.07118,1.4605 v 1.540933 h 0.635 c 0.480646,0 0.635,-0.02814 0.635,-0.115778 z m 1.058333,-5.208729 c -0.735425,-0.192195 -1.349223,-0.718806 -1.68368,-1.444524 -0.244553,-0.530642 -0.238158,-1.574394 0.01308,-2.135333 0.869551,-1.94142 3.293112,-2.029444 4.266708,-0.154968 0.167111,0.321741 0.197721,0.506101 0.196807,1.185333 -0.0012,0.898729 -0.128076,1.244754 -0.680625,1.85636 -0.481939,0.533448 -1.475623,0.859518 -2.112293,0.693132 z m 1.27,-0.465278 c 0.831278,-0.392986 1.271416,-1.136555 1.258762,-2.126547 -0.01645,-1.286612 -0.857965,-2.198896 -2.020762,-2.190693 -0.798236,0.0056 -1.460208,0.443092 -1.875379,1.239336 -0.22553,0.432537 -0.25188,1.45892 -0.04944,1.925659 0.239835,0.552947 0.58852,0.927246 1.07469,1.153636 0.550992,0.256575 1.067399,0.25613 1.612126,-0.0014 z"
         id="path2452"
         inkscape:connector-curvature="0" />
    </g>
  </g>
</svg>
