<?xml version="1.0" encoding="UTF-8" standalone="no"?>
<!-- Created with Inkscape (http://www.inkscape.org/) -->

<svg
   xmlns:dc="http://purl.org/dc/elements/1.1/"
   xmlns:cc="http://creativecommons.org/ns#"
   xmlns:rdf="http://www.w3.org/1999/02/22-rdf-syntax-ns#"
   xmlns:svg="http://www.w3.org/2000/svg"
   xmlns="http://www.w3.org/2000/svg"
   xmlns:sodipodi="http://sodipodi.sourceforge.net/DTD/sodipodi-0.dtd"
   xmlns:inkscape="http://www.inkscape.org/namespaces/inkscape"
   width="167.57347mm"
   height="106.04259mm"
   viewBox="0 0 167.57347 106.0426"
   version="1.1"
   id="svg1894"
   inkscape:version="0.92.5 (2060ec1f9f, 2020-04-08)"
   sodipodi:docname="amfo_balloons_2.svg">
  <defs
     id="defs1888" />
  <sodipodi:namedview
     id="base"
     pagecolor="#ffffff"
     bordercolor="#666666"
     borderopacity="1.0"
     inkscape:pageopacity="0.0"
     inkscape:pageshadow="2"
     inkscape:zoom="0.35"
     inkscape:cx="-148.5028"
     inkscape:cy="-29.253817"
     inkscape:document-units="mm"
     inkscape:current-layer="layer1"
     showgrid="false"
     fit-margin-top="0"
     fit-margin-left="0"
     fit-margin-right="0"
     fit-margin-bottom="0"
     inkscape:window-width="1848"
     inkscape:window-height="1016"
     inkscape:window-x="72"
     inkscape:window-y="27"
     inkscape:window-maximized="1" />
  <metadata
     id="metadata1891">
    <rdf:RDF>
      <cc:Work
         rdf:about="">
        <dc:format>image/svg+xml</dc:format>
        <dc:type
           rdf:resource="http://purl.org/dc/dcmitype/StillImage" />
        <dc:title></dc:title>
      </cc:Work>
    </rdf:RDF>
  </metadata>
  <g
     inkscape:label="Layer 1"
     inkscape:groupmode="layer"
     id="layer1"
     transform="translate(-9.8092233,-35.050668)">
    <g
       id="g2498"
       transform="matrix(7.7313063,0,0,7.7313063,-405.00988,-412.04766)">
      <path
         style="fill:#fdfdfd;stroke-width:0.08466666"
         d="m 53.654465,64.687597 v -6.858 H 64.491798 75.32913 v 6.858 6.858 H 64.491798 53.654465 Z"
         id="path2514"
         inkscape:connector-curvature="0" />
      <path
         style="fill:#deecb3;stroke-width:0.08466666"
         d="m 67.648627,69.450097 c 0.0258,-0.314325 0.09208,-1.078664 0.147289,-1.698532 0.05521,-0.619868 0.0795,-1.147905 0.05399,-1.173416 -0.02551,-0.02551 -0.653287,0.110178 -1.395058,0.301532 -0.741771,0.191354 -1.386673,0.347916 -1.433116,0.347916 -0.04644,0 -0.10631,-0.123825 -0.133038,-0.275167 -0.02673,-0.151341 -0.165062,-0.825866 -0.307411,-1.498943 -0.301462,-1.425417 -0.294975,-1.358557 -0.131817,-1.358557 0.06985,0 0.127,0.02705 0.127,0.0601 0,0.07432 0.506989,2.570802 0.548645,2.701596 0.02005,0.06297 0.507605,-0.02901 1.455257,-0.274557 0.783804,-0.203089 1.453673,-0.369527 1.488598,-0.369862 0.09501,-9.12e-4 0.08135,0.386782 -0.07679,2.179557 -0.115119,1.305039 -0.168349,1.629833 -0.267114,1.629833 -0.100467,0 -0.114643,-0.106002 -0.07643,-0.5715 z m -9.557441,-3.042061 c -0.02742,-0.08476 -0.412684,-0.999773 -0.856141,-2.033367 l -0.806286,-1.879262 0.636126,-1.168738 c 0.349869,-0.642806 0.781193,-1.435439 0.958497,-1.761405 0.177305,-0.325967 0.394764,-0.735542 0.483242,-0.910167 0.284314,-0.561136 0.409275,-0.441508 0.840195,0.804333 0.213415,0.617009 0.543845,1.559984 0.73429,2.0955 0.190444,0.535517 0.346123,1.030817 0.345954,1.100667 -3.13e-4,0.13037 -0.066,0.27062 -0.436149,0.931333 -0.533225,0.951793 -1.387776,2.596414 -1.429254,2.750662 -0.06055,0.225169 -0.403792,0.276563 -0.470474,0.07044 z m 12.980693,-2.316269 c -0.728439,-0.181968 -1.320615,-0.681923 -1.677348,-1.41613 -0.15841,-0.326029 -0.195293,-0.543565 -0.197193,-1.16304 -0.002,-0.646604 0.03088,-0.83252 0.21698,-1.227667 0.614083,-1.303857 2.026723,-1.884218 3.233765,-1.32854 0.522606,0.240589 0.880645,0.591424 1.209927,1.185584 0.222644,0.401741 0.243453,0.51166 0.243453,1.285956 0,0.950558 -0.117885,1.27461 -0.696794,1.915393 -0.571839,0.632957 -1.545099,0.945215 -2.33279,0.748444 z"
         id="path2512"
         inkscape:connector-curvature="0" />
      <path
         style="fill:#a3a59c;stroke-width:0.08466666"
         d="m 67.623036,69.922819 c -7.62e-4,-0.06209 0.06249,-0.827486 0.140617,-1.700884 0.07812,-0.873398 0.116991,-1.613046 0.08637,-1.643665 -0.03062,-0.03062 -0.672105,0.103864 -1.425526,0.29885 -0.753422,0.194987 -1.398332,0.325036 -1.433135,0.288999 -0.114086,-0.118132 -0.668084,-2.936538 -0.592145,-3.012476 0.116267,-0.116268 0.156486,0.0087 0.433747,1.347716 0.14356,0.693314 0.275538,1.305088 0.293284,1.359498 0.02245,0.06883 0.475781,-0.01487 1.490284,-0.275166 0.801911,-0.205752 1.476248,-0.374094 1.498528,-0.374094 0.04857,0 -0.03999,1.35011 -0.180064,2.745026 -0.06505,0.647751 -0.138828,1.02185 -0.205946,1.044222 -0.05752,0.01918 -0.105231,-0.01594 -0.106016,-0.07803 z m -9.460071,-3.428628 c -0.05821,-0.02349 -0.105834,-0.09871 -0.105834,-0.167165 0,-0.06845 -0.363214,-0.959539 -0.807142,-1.98019 l -0.807142,-1.855728 0.311982,-0.573922 c 0.17159,-0.315657 0.60755,-1.107322 0.9688,-1.759256 0.36125,-0.651933 0.724479,-1.328208 0.807175,-1.502833 0.144722,-0.305602 0.310486,-0.40247 0.410845,-0.240086 0.04415,0.07143 0.358963,0.942215 1.119878,3.097586 0.42015,1.190121 0.417572,1.138959 0.08795,1.745503 -0.890587,1.638769 -1.669009,3.135211 -1.669009,3.20851 0,0.08777 -0.138507,0.09981 -0.3175,0.02758 z m 0.218233,-2.780261 c 0.04236,-0.5588 0.0725,-1.020462 0.06697,-1.025917 -0.0055,-0.0055 -0.348487,-0.03643 -0.762143,-0.06883 -0.701614,-0.05496 -0.748917,-0.04861 -0.704648,0.09458 0.0261,0.08442 0.307396,0.749488 0.625103,1.477921 l 0.577647,1.324424 0.06003,-0.39309 c 0.03301,-0.2162 0.09468,-0.850291 0.137041,-1.409091 z m 1.100304,-0.06038 c 0.241063,-0.452309 0.438296,-0.839824 0.438296,-0.861144 0,-0.02132 -0.28226,-0.0513 -0.627245,-0.06662 l -0.627245,-0.02786 -0.04869,0.592667 c -0.02678,0.325967 -0.07113,0.954617 -0.09856,1.397 l -0.04986,0.804333 0.287505,-0.508 c 0.158128,-0.2794 0.484738,-0.878071 0.725801,-1.330381 z m 0.479486,-1.230785 c -0.09151,-0.22013 -0.896696,-2.485222 -0.97063,-2.7305 -0.0608,-0.201717 -0.06613,-0.197737 -0.113229,0.08467 -0.02718,0.162984 -0.07143,0.658284 -0.09832,1.100667 -0.0269,0.442383 -0.07156,0.983269 -0.09926,1.201967 l -0.05036,0.397634 0.49714,0.03086 c 0.273427,0.01697 0.586941,0.03806 0.696698,0.04687 0.159624,0.01281 0.187233,-0.01364 0.137965,-0.132157 z M 58.50804,61.74543 c 0.02853,-0.407458 0.07471,-1.121833 0.102617,-1.5875 l 0.05074,-0.846666 -0.517789,0.931333 c -0.284784,0.512233 -0.668424,1.205817 -0.852534,1.541297 l -0.334744,0.609963 0.571565,0.02962 c 0.31436,0.01629 0.651823,0.03708 0.749917,0.0462 0.165551,0.01539 0.182075,-0.03659 0.230223,-0.724251 z m 12.714757,2.35393 c -0.870832,-0.145018 -1.619599,-0.836008 -1.904126,-1.7572 -0.213822,-0.692275 -0.214091,-1.050648 -0.0013,-1.739568 0.31426,-1.017457 1.169733,-1.741226 2.151193,-1.820008 1.028077,-0.08252 1.92483,0.441426 2.395317,1.399524 0.208279,0.42414 0.23712,0.57782 0.233801,1.245822 -0.003,0.594745 -0.04387,0.849711 -0.186392,1.161601 -0.490213,1.072752 -1.593263,1.692214 -2.688488,1.509829 z"
         id="path2510"
         inkscape:connector-curvature="0" />
      <path
         style="fill:#9d65bc;stroke-width:0.08466666"
         d="m 67.676799,69.953113 c -0.02829,-0.04578 0.01186,-0.811094 0.08924,-1.700695 0.07737,-0.889602 0.116573,-1.641566 0.08711,-1.671031 -0.04235,-0.04235 -1.645667,0.326234 -2.651169,0.609479 -0.125513,0.03536 -0.19701,0.0042 -0.239824,-0.104614 -0.147254,-0.374149 -0.614431,-2.827603 -0.546424,-2.869634 0.119054,-0.07358 0.222665,0.260274 0.461481,1.486979 0.122386,0.62865 0.247661,1.167354 0.278388,1.197121 0.03073,0.02977 0.696526,-0.109756 1.479552,-0.310051 1.200906,-0.307185 1.431251,-0.344446 1.472053,-0.238118 0.04787,0.12475 0.0368,0.297305 -0.15667,2.441381 -0.09525,1.055544 -0.162297,1.339488 -0.273731,1.159183 z m -9.61051,-3.755632 c -0.08811,-0.201786 -0.472843,-1.090784 -0.854959,-1.975551 -0.382116,-0.884766 -0.708613,-1.631227 -0.725548,-1.658801 -0.04939,-0.08042 2.198371,-4.166428 2.313019,-4.204644 0.05718,-0.01906 0.146159,0.07322 0.197741,0.205063 0.117095,0.299292 1.251192,3.535263 1.359941,3.880382 0.07269,0.230674 -0.01351,0.428894 -0.938562,2.158413 -0.56023,1.047427 -1.057486,1.917375 -1.105014,1.933217 -0.04753,0.01584 -0.158506,-0.136293 -0.246618,-0.338079 z M 59.220825,64.168649 59.97592,62.7607 59.334026,62.71807 c -0.353042,-0.02345 -0.64925,-0.03657 -0.658239,-0.02915 -0.009,0.0074 -0.05733,0.526825 -0.107416,1.154247 -0.05009,0.627421 -0.106206,1.286788 -0.124703,1.465259 -0.0185,0.178471 -0.0211,0.311821 -0.0058,0.296333 0.01532,-0.01549 0.36764,-0.661736 0.782942,-1.436107 z m -0.839504,-0.243052 c 0.04475,-0.675217 0.07584,-1.232936 0.06909,-1.239377 -0.0068,-0.0064 -0.362978,-0.03892 -0.791615,-0.07219 l -0.77934,-0.06047 0.426643,0.961186 c 0.234654,0.528652 0.52572,1.206771 0.646814,1.506931 0.197155,0.488694 0.226803,0.524098 0.283613,0.338666 0.03489,-0.113893 0.100053,-0.759528 0.1448,-1.434745 z m 1.609032,-1.423626 c -0.01552,-0.03793 -0.256547,-0.723728 -0.535611,-1.524 -0.279064,-0.800272 -0.530648,-1.455041 -0.559075,-1.455041 -0.02843,0 -0.07699,0.447675 -0.107913,0.994834 -0.03092,0.547158 -0.07925,1.211332 -0.10738,1.475942 l -0.05115,0.481109 0.327788,0.03383 c 0.626794,0.06468 1.061397,0.06188 1.033344,-0.0067 z m -1.509888,-0.159085 c 0,-0.199786 0.162232,-2.451967 0.205501,-2.852864 l 0.03554,-0.329242 -0.147445,0.244575 c -0.08109,0.134517 -0.311762,0.549375 -0.512592,0.921909 -0.200831,0.372533 -0.533686,0.989695 -0.739678,1.37147 l -0.374531,0.694138 0.491438,0.03069 c 0.270291,0.01688 0.615263,0.03789 0.766605,0.0467 0.20842,0.01212 0.275167,-0.01877 0.275167,-0.127369 z m 12.222732,1.589274 c -1.280412,-0.581418 -1.89,-2.267801 -1.289178,-3.566426 0.286293,-0.618797 0.639044,-1.008296 1.189115,-1.312995 0.386246,-0.213952 0.540692,-0.249449 1.08533,-0.249449 0.545,0 0.698992,0.03545 1.086503,0.250088 0.536534,0.297186 0.810945,0.602436 1.107128,1.231552 0.31455,0.668125 0.31252,1.621298 -0.0049,2.298528 -0.275189,0.58714 -0.803046,1.129232 -1.312024,1.347405 -0.507464,0.217525 -1.384454,0.218136 -1.861981,0.0013 z"
         id="path2508"
         inkscape:connector-curvature="0" />
      <path
         style="fill:#f16464;stroke-width:0.08466666"
         d="m 58.066289,66.197481 c -0.08811,-0.201786 -0.472843,-1.090784 -0.854959,-1.975551 -0.382116,-0.884766 -0.708613,-1.631227 -0.725548,-1.658801 -0.04939,-0.08042 2.198371,-4.166428 2.313019,-4.204644 0.05718,-0.01906 0.146159,0.07322 0.197741,0.205063 0.117095,0.299292 1.251192,3.535263 1.359941,3.880382 0.07269,0.230674 -0.01351,0.428894 -0.938562,2.158413 -0.56023,1.047427 -1.057486,1.917375 -1.105014,1.933217 -0.04753,0.01584 -0.158506,-0.136293 -0.246618,-0.338079 z M 59.220825,64.168649 59.97592,62.7607 59.334026,62.71807 c -0.353042,-0.02345 -0.64925,-0.03657 -0.658239,-0.02915 -0.009,0.0074 -0.05733,0.526825 -0.107416,1.154247 -0.05009,0.627421 -0.106206,1.286788 -0.124703,1.465259 -0.0185,0.178471 -0.0211,0.311821 -0.0058,0.296333 0.01532,-0.01549 0.36764,-0.661736 0.782942,-1.436107 z m -0.839504,-0.243052 c 0.04475,-0.675217 0.07584,-1.232936 0.06909,-1.239377 -0.0068,-0.0064 -0.362978,-0.03892 -0.791615,-0.07219 l -0.77934,-0.06047 0.426643,0.961186 c 0.234654,0.528652 0.52572,1.206771 0.646814,1.506931 0.197155,0.488694 0.226803,0.524098 0.283613,0.338666 0.03489,-0.113893 0.100053,-0.759528 0.1448,-1.434745 z m 1.609032,-1.423626 c -0.01552,-0.03793 -0.256547,-0.723728 -0.535611,-1.524 -0.279064,-0.800272 -0.530648,-1.455041 -0.559075,-1.455041 -0.02843,0 -0.07699,0.447675 -0.107913,0.994834 -0.03092,0.547158 -0.07925,1.211332 -0.10738,1.475942 l -0.05115,0.481109 0.327788,0.03383 c 0.626794,0.06468 1.061397,0.06188 1.033344,-0.0067 z m -1.509888,-0.159085 c 0,-0.199786 0.162232,-2.451967 0.205501,-2.852864 l 0.03554,-0.329242 -0.147445,0.244575 c -0.08109,0.134517 -0.311762,0.549375 -0.512592,0.921909 -0.200831,0.372533 -0.533686,0.989695 -0.739678,1.37147 l -0.374531,0.694138 0.491438,0.03069 c 0.270291,0.01688 0.615263,0.03789 0.766605,0.0467 0.20842,0.01212 0.275167,-0.01877 0.275167,-0.127369 z m 12.222732,1.589274 c -1.280412,-0.581418 -1.89,-2.267801 -1.289178,-3.566426 0.286293,-0.618797 0.639044,-1.008296 1.189115,-1.312995 0.386246,-0.213952 0.540692,-0.249449 1.08533,-0.249449 0.545,0 0.698992,0.03545 1.086503,0.250088 0.536534,0.297186 0.810945,0.602436 1.107128,1.231552 0.31455,0.668125 0.31252,1.621298 -0.0049,2.298528 -0.275189,0.58714 -0.803046,1.129232 -1.312024,1.347405 -0.507464,0.217525 -1.384454,0.218136 -1.861981,0.0013 z"
         id="path2506"
         inkscape:connector-curvature="0" />
      <path
         style="fill:#ec5b5a;stroke-width:0.08466666"
         d="m 58.066289,66.197481 c -0.08811,-0.201786 -0.472843,-1.090784 -0.854959,-1.975551 -0.382116,-0.884766 -0.708613,-1.631227 -0.725548,-1.658801 -0.04939,-0.08042 2.198371,-4.166428 2.313019,-4.204644 0.05718,-0.01906 0.146159,0.07322 0.197741,0.205063 0.117095,0.299292 1.251192,3.535263 1.359941,3.880382 0.07269,0.230674 -0.01351,0.428894 -0.938562,2.158413 -0.56023,1.047427 -1.057486,1.917375 -1.105014,1.933217 -0.04753,0.01584 -0.158506,-0.136293 -0.246618,-0.338079 z M 59.220825,64.168649 59.97592,62.7607 59.334026,62.71807 c -0.353042,-0.02345 -0.64925,-0.03657 -0.658239,-0.02915 -0.009,0.0074 -0.05733,0.526825 -0.107416,1.154247 -0.05009,0.627421 -0.106206,1.286788 -0.124703,1.465259 -0.0185,0.178471 -0.0211,0.311821 -0.0058,0.296333 0.01532,-0.01549 0.36764,-0.661736 0.782942,-1.436107 z m -0.839504,-0.243052 c 0.04475,-0.675217 0.07584,-1.232936 0.06909,-1.239377 -0.0068,-0.0064 -0.362978,-0.03892 -0.791615,-0.07219 l -0.77934,-0.06047 0.426643,0.961186 c 0.234654,0.528652 0.52572,1.206771 0.646814,1.506931 0.197155,0.488694 0.226803,0.524098 0.283613,0.338666 0.03489,-0.113893 0.100053,-0.759528 0.1448,-1.434745 z m 1.609032,-1.423626 c -0.01552,-0.03793 -0.256547,-0.723728 -0.535611,-1.524 -0.279064,-0.800272 -0.530648,-1.455041 -0.559075,-1.455041 -0.02843,0 -0.07699,0.447675 -0.107913,0.994834 -0.03092,0.547158 -0.07925,1.211332 -0.10738,1.475942 l -0.05115,0.481109 0.327788,0.03383 c 0.626794,0.06468 1.061397,0.06188 1.033344,-0.0067 z m -1.509888,-0.159085 c 0,-0.199786 0.162232,-2.451967 0.205501,-2.852864 l 0.03554,-0.329242 -0.147445,0.244575 c -0.08109,0.134517 -0.311762,0.549375 -0.512592,0.921909 -0.200831,0.372533 -0.533686,0.989695 -0.739678,1.37147 l -0.374531,0.694138 0.491438,0.03069 c 0.270291,0.01688 0.615263,0.03789 0.766605,0.0467 0.20842,0.01212 0.275167,-0.01877 0.275167,-0.127369 z m 12.222732,1.589274 c -1.280412,-0.581418 -1.89,-2.267801 -1.289178,-3.566426 0.286293,-0.618797 0.639044,-1.008296 1.189115,-1.312995 0.386246,-0.213952 0.540692,-0.249449 1.08533,-0.249449 0.545,0 0.698992,0.03545 1.086503,0.250088 0.536534,0.297186 0.810945,0.602436 1.107128,1.231552 0.31455,0.668125 0.31252,1.621298 -0.0049,2.298528 -0.275189,0.58714 -0.803046,1.129232 -1.312024,1.347405 -0.507464,0.217525 -1.384454,0.218136 -1.861981,0.0013 z m 1.53251,-0.270006 c 0.367396,-0.101999 1.030509,-0.70679 1.258635,-1.147937 0.07514,-0.145298 0.162554,-0.426412 0.194261,-0.624698 0.04702,-0.294058 0.03576,-0.349169 -0.06108,-0.298943 -0.0653,0.03387 -0.04477,0.0016 0.04562,-0.0717 0.161793,-0.131206 0.161606,-0.133279 -0.01199,-0.133279 -0.12093,0 -0.194351,-0.07177 -0.233667,-0.228418 -0.04389,-0.174871 -0.07473,-0.200255 -0.131575,-0.108285 -0.04084,0.06607 -0.09718,0.0972 -0.125214,0.06916 -0.02803,-0.02803 0.008,-0.109933 0.08006,-0.182001 0.07207,-0.07207 0.131032,-0.179135 0.131032,-0.237928 0,-0.05935 -0.05395,-0.0338 -0.1213,0.05745 -0.09243,0.125233 -0.145083,0.140916 -0.221223,0.06589 -0.117105,-0.115385 -0.0383,-0.282544 0.133196,-0.282544 0.0713,0 0.09973,-0.05113 0.07061,-0.127 -0.0268,-0.06985 -0.101809,-0.127 -0.166677,-0.127 -0.06487,0 -0.117941,-0.08255 -0.117941,-0.183444 0,-0.100895 0.02222,-0.16122 0.04939,-0.134056 0.02716,0.02716 0.04708,0.07075 0.04426,0.09685 -0.0028,0.02611 0.08925,0.141849 0.204611,0.257207 0.115359,0.115358 0.210262,0.297199 0.210898,0.404091 0.0017,0.283676 0.09195,0.575348 0.178052,0.575348 0.217659,0 -0.05357,-0.920172 -0.344993,-1.170445 -0.07421,-0.06373 -0.08123,-0.08672 -0.01627,-0.05328 0.08906,0.04585 0.09539,0.02388 0.02866,-0.09955 -0.107929,-0.199656 -0.56241,-0.470537 -0.652637,-0.388987 -0.03728,0.0337 -0.04305,0.01796 -0.01281,-0.03497 0.03024,-0.05293 -0.0076,-0.148182 -0.0841,-0.211666 -0.07649,-0.06349 -0.14275,-0.103443 -0.147234,-0.0888 -0.0045,0.01465 -0.0653,0.0082 -0.135154,-0.0143 -0.261445,-0.08426 -0.586065,-0.112481 -0.545874,-0.04745 0.02292,0.03708 -0.09846,0.04468 -0.269726,0.01689 -0.207364,-0.03365 -0.293016,-0.0208 -0.256383,0.03848 0.03026,0.04895 -0.0039,0.111615 -0.0759,0.139245 -0.072,0.02763 -0.111559,0.01892 -0.0879,-0.01935 0.02365,-0.03827 -0.01079,-0.06958 -0.07655,-0.06958 -0.06575,0 -0.09835,0.0343 -0.07245,0.07622 0.02591,0.04192 -0.0043,0.06568 -0.06722,0.05279 -0.18374,-0.03765 -0.51293,0.182781 -0.463875,0.310615 0.03056,0.07964 0.0014,0.09961 -0.0928,0.06347 -0.104032,-0.03992 -0.123776,-0.01725 -0.08132,0.09338 0.03109,0.08102 0.02136,0.124649 -0.02184,0.09795 -0.08934,-0.05521 -0.34349,0.274223 -0.34349,0.445239 0,0.06282 -0.05764,0.171851 -0.128093,0.242302 -0.0996,0.0996 -0.120663,0.281893 -0.09469,0.819452 0.04813,0.996271 0.272576,1.451356 0.930528,1.886768 0.563368,0.372819 1.063438,0.454143 1.702165,0.276815 z m -0.504769,-0.075 c -0.02886,-0.04669 0.0069,-0.0849 0.07953,-0.0849 0.163166,0 0.167203,-0.06156 0.01408,-0.214681 -0.10078,-0.10078 -0.124903,-0.09121 -0.165975,0.06585 -0.02643,0.101073 -0.07047,0.161354 -0.09787,0.133957 -0.0274,-0.0274 -0.02478,-0.149558 0.0058,-0.271469 0.05966,-0.237672 0.291279,-0.308971 0.291279,-0.08966 0,0.0726 0.0336,0.111231 0.07467,0.08585 0.04107,-0.02538 0.07668,-0.191606 0.07913,-0.369389 0.0025,-0.177782 0.01146,-0.359289 0.02002,-0.403348 0.02998,-0.154313 -0.0051,-0.291775 -0.07449,-0.291775 -0.0385,0 -0.05273,0.117677 -0.03162,0.261505 0.03594,0.244849 0.02287,0.259877 -0.205214,0.235952 -0.133978,-0.01405 -0.283499,-8.89e-4 -0.332269,0.02925 -0.04877,0.03014 -0.201147,0.03638 -0.338616,0.01386 -0.137469,-0.02252 -0.345192,-0.04893 -0.461609,-0.0587 -0.158229,-0.01328 -0.210083,-0.0646 -0.205396,-0.203273 0.0034,-0.102031 -0.02513,-0.166106 -0.0635,-0.14239 -0.03837,0.02372 -0.06977,0.0028 -0.06977,-0.04654 0,-0.04931 0.0381,-0.08966 0.08467,-0.08966 0.04657,0 0.08467,-0.03282 0.08467,-0.07293 0,-0.04011 -0.09128,-0.05548 -0.202842,-0.03415 -0.180643,0.03453 -0.209248,8.65e-4 -0.261368,-0.30763 -0.03219,-0.190524 -0.09331,-0.367905 -0.135824,-0.39418 -0.102894,-0.06359 -0.09891,-0.207114 0.0058,-0.207114 0.04568,0 0.104911,0.08709 0.131625,0.193524 0.03188,0.127024 0.112443,0.194272 0.234447,0.195702 0.242796,0.0028 0.32334,-0.126803 0.210159,-0.338284 -0.06611,-0.123535 -0.0645,-0.178647 0.0059,-0.202117 0.05324,-0.01775 0.09681,-0.111644 0.09681,-0.208658 0,-0.09701 -0.02358,-0.152804 -0.05241,-0.123977 -0.07635,0.07635 -0.286253,-0.157911 -0.286253,-0.319472 0,-0.08586 -0.04001,-0.115457 -0.105834,-0.07829 -0.07234,0.04084 -0.07904,0.03127 -0.02117,-0.03026 0.149638,-0.159085 0.425964,-0.162435 0.399951,-0.0048 -0.02047,0.124012 0.009,0.129428 0.236643,0.0435 0.320178,-0.120854 0.448657,0.02092 0.369299,0.407518 -0.07023,0.34211 -0.09995,0.381 -0.291224,0.381 -0.215007,0 -0.211634,0.142911 0.005,0.211667 0.226265,0.07181 0.214924,0.193414 -0.02117,0.226945 -0.14792,0.02101 -0.196626,0.09118 -0.217905,0.313937 -0.0379,0.396769 0.04061,0.656944 0.216979,0.719055 0.082,0.02888 0.196744,0.07471 0.254984,0.101859 0.07185,0.03349 0.09004,-5.5e-4 0.05659,-0.105888 -0.04749,-0.149541 -0.04468,-0.149615 0.07648,-0.002 0.0729,0.08881 0.14758,0.117968 0.177627,0.06935 0.02851,-0.04614 0.0125,-0.108198 -0.03558,-0.137917 -0.04809,-0.02972 -0.06578,-0.08907 -0.03932,-0.13188 0.02646,-0.04282 -0.01102,-0.05516 -0.08329,-0.02743 -0.107035,0.04107 -0.131398,-0.0219 -0.131398,-0.339636 0,-0.228727 0.03877,-0.390059 0.09373,-0.390059 0.05155,0 0.07179,-0.05715 0.04499,-0.127 -0.04666,-0.121596 0.0351,-0.162972 0.263451,-0.13332 0.05821,0.0076 0.105833,-0.02603 0.105833,-0.07464 0,-0.04861 -0.04082,-0.08838 -0.09071,-0.08838 -0.04989,0 -0.03356,-0.05715 0.03629,-0.127 0.06985,-0.06985 0.167823,-0.127 0.217715,-0.127 0.04989,0 0.09071,-0.0381 0.09071,-0.08467 0,-0.04657 0.09659,-0.08467 0.214645,-0.08467 0.18841,0 0.20357,0.0207 0.124022,0.169333 -0.07892,0.147457 -0.06439,0.169333 0.112461,0.169333 0.160079,0 0.198857,0.04034 0.183118,0.1905 -0.01098,0.104775 -0.02483,0.238125 -0.03077,0.296334 -0.01366,0.13376 -0.319026,0.138925 -0.400698,0.0068 -0.04092,-0.06621 -0.01541,-0.08148 0.07696,-0.04603 0.076,0.02916 0.160696,0.01659 0.188219,-0.02795 0.02752,-0.04453 -0.01664,-0.08097 -0.09814,-0.08097 -0.134281,0 -0.132763,-0.0125 0.01617,-0.133284 0.159545,-0.129388 0.158523,-0.132027 -0.03495,-0.09029 -0.174163,0.03757 -0.194247,0.01658 -0.159266,-0.166405 0.0253,-0.132352 0.0052,-0.19648 -0.05471,-0.17429 -0.0521,0.01931 -0.08365,0.08264 -0.0701,0.140742 0.01489,0.06385 -0.02657,0.08599 -0.104817,0.05596 -0.0712,-0.02732 -0.125392,-0.02247 -0.120436,0.01078 0.03128,0.209858 -0.03313,0.352387 -0.180375,0.399119 -0.09313,0.02956 -0.169334,0.108327 -0.169334,0.175039 0,0.06671 -0.04277,0.121295 -0.09503,0.121295 -0.06362,0 -0.05842,0.04412 0.01572,0.133453 0.08919,0.10747 0.08982,0.146393 0.0032,0.19992 -0.07735,0.0478 -0.05789,0.07945 0.06929,0.112712 0.119304,0.0312 0.160006,0.09011 0.1251,0.18108 -0.02846,0.07416 -0.01909,0.139697 0.02082,0.14564 0.386173,0.05751 0.453559,0.04161 0.453559,-0.107032 0,-0.08678 -0.0381,-0.157773 -0.08467,-0.157773 -0.04657,0 -0.07514,0.04286 -0.0635,0.09525 0.01164,0.05239 -0.03224,0.114638 -0.0975,0.138335 -0.08608,0.03125 -0.105697,-0.0065 -0.07143,-0.137583 0.03375,-0.129075 0.0084,-0.180669 -0.08876,-0.180669 -0.108317,0 -0.114604,-0.0214 -0.03088,-0.105126 0.08372,-0.08372 0.118713,-0.08314 0.171869,0.0029 0.03671,0.0594 0.122544,0.08658 0.190744,0.06041 0.0682,-0.02617 0.289019,0.01064 0.490709,0.0818 0.466603,0.164627 0.458451,0.166716 0.29902,-0.07661 -0.104991,-0.160236 -0.114166,-0.244861 -0.04131,-0.381 0.135989,-0.254099 0.26069,-0.214437 0.204777,0.06513 -0.03088,0.154395 -0.003,0.28513 0.07797,0.366138 0.111552,0.111553 0.10707,0.137818 -0.03909,0.229099 -0.120137,0.07503 -0.148993,0.153819 -0.105973,0.289364 0.05278,0.16628 0.04398,0.173698 -0.08201,0.06914 -0.07912,-0.06566 -0.120642,-0.181657 -0.09451,-0.264007 0.0312,-0.09831 -0.0077,-0.161101 -0.117786,-0.189877 -0.116864,-0.03056 -0.178423,0.0092 -0.212884,0.137671 -0.07542,0.281066 -0.05945,0.476997 0.03887,0.476997 0.04932,0 0.06829,-0.03458 0.04217,-0.07685 -0.02612,-0.04227 -0.01174,-0.166091 0.03197,-0.275167 0.04964,-0.123898 0.08553,-0.150661 0.09564,-0.07132 0.0599,0.470422 0.05238,0.508 -0.101666,0.508 -0.145352,0 -0.198853,0.128881 -0.165109,0.397745 0.01741,0.138705 -0.304473,0.306875 -0.373523,0.19515 z m -1.312474,-1.853837 c 0,-0.108371 -0.25158,-0.189881 -0.36662,-0.118782 -0.06039,0.03733 -0.01733,0.08243 0.113473,0.118835 0.115948,0.03227 0.220338,0.06247 0.23198,0.06712 0.01164,0.0046 0.02117,-0.02558 0.02117,-0.06717 z m 0.592666,-1.236725 c 0,-0.08467 -0.08467,-0.127 -0.254,-0.127 -0.169333,0 -0.254,0.04233 -0.254,0.127 0,0.08467 0.08467,0.127 0.254,0.127 0.169334,0 0.254,-0.04233 0.254,-0.127 z m -0.661811,-0.145344 c -0.06075,-0.06075 -0.100189,-0.06575 -0.100189,-0.0127 0,0.113011 0.100128,0.213139 0.156634,0.156633 0.02406,-0.02406 -0.0013,-0.08883 -0.05645,-0.143933 z m 0.740059,3.123564 c 0.125507,-0.125508 0.114824,-0.250808 -0.01475,-0.172964 -0.07191,0.0432 -0.06859,0.01767 0.01037,-0.07967 0.124718,-0.153754 0.349467,-0.194645 0.349467,-0.06358 0,0.04382 -0.04217,0.105731 -0.09371,0.137584 -0.06716,0.04151 -0.06495,0.07568 0.0078,0.120638 0.06421,0.03968 0.01851,0.07859 -0.124381,0.105903 -0.161193,0.03081 -0.199789,0.0171 -0.134785,-0.04791 z m 1.157697,0.04984 c -0.09085,-0.09085 -0.05329,-0.191722 0.07139,-0.191722 0.0671,0 0.143083,0.03411 0.168847,0.07579 0.05387,0.08716 -0.163918,0.192249 -0.240239,0.115927 z m -1.725646,-0.263287 c -0.141635,-0.08987 -0.04059,-0.350039 0.138927,-0.357719 0.108622,-0.0046 0.101997,-0.0219 -0.03023,-0.07872 -0.21947,-0.09431 0.02109,-0.09845 0.254,-0.0044 0.158789,0.06414 0.154835,0.07516 -0.0635,0.176973 -0.128058,0.05972 -0.232833,0.14056 -0.232833,0.179652 0,0.09018 0.14586,0.09334 0.183445,0.004 0.01552,-0.03691 0.166069,-0.151208 0.334548,-0.254 0.324852,-0.198195 0.623499,-0.24166 0.709074,-0.103197 0.02966,0.048 -0.0043,0.06219 -0.07967,0.03328 -0.07464,-0.02864 -0.131398,-0.0057 -0.131398,0.05318 0,0.06516 -0.06934,0.08547 -0.186883,0.05473 -0.124191,-0.03248 -0.278511,0.02102 -0.460018,0.159459 -0.308741,0.235488 -0.289434,0.229424 -0.435467,0.136764 z m 1.98449,0.0081 c -0.02156,-0.03493 0.05823,-0.06936 0.177314,-0.07652 0.15611,-0.0094 0.183371,0.008 0.09771,0.0622 -0.146621,0.09283 -0.22406,0.09686 -0.275023,0.01431 z m -2.216382,-0.16035 c 0.02222,-0.02998 -0.07303,-0.183711 -0.211667,-0.341613 -0.13864,-0.157903 -0.250915,-0.333395 -0.249498,-0.389983 0.0014,-0.05659 0.04141,-0.03621 0.08887,0.04528 0.122141,0.209703 0.270725,0.186279 0.201519,-0.03177 -0.03486,-0.109826 -0.02457,-0.159824 0.02641,-0.128319 0.117689,0.07274 0.190194,0.392922 0.08898,0.392922 -0.04609,0 -0.06633,0.04762 -0.04499,0.105833 0.02134,0.05821 0.07812,0.09749 0.126178,0.08729 0.09473,-0.0201 0.08885,0.196966 -0.0073,0.27009 -0.03239,0.02463 -0.04071,0.02025 -0.01849,-0.0097 z m 2.189148,-0.15715 c 0,-0.144501 0.105286,-0.168798 0.183445,-0.04233 0.02878,0.04657 0.0977,0.08408 0.153164,0.08337 0.06059,-7.79e-4 0.05015,-0.03406 -0.02616,-0.08337 -0.109448,-0.07073 -0.107212,-0.08225 0.01617,-0.08337 0.195656,-0.0018 0.26764,0.13848 0.103419,0.201498 -0.233981,0.08979 -0.430034,0.05523 -0.430034,-0.07579 z m 0.500945,-0.195113 c -0.235192,-0.03498 -0.244427,-0.186747 -0.02291,-0.37642 0.158491,-0.135703 0.172484,-0.134364 0.25758,0.02464 0.117417,0.219395 0.0053,0.387468 -0.234674,0.351781 z m 0.163689,-0.288898 c -0.06075,-0.06075 -0.100189,-0.06575 -0.100189,-0.0127 0,0.113012 0.100128,0.213139 0.156633,0.156634 0.02406,-0.02406 -0.0013,-0.08883 -0.05644,-0.143934 z m 0.15736,-0.18669 c -0.06028,-0.112629 -0.157018,-0.186582 -0.214979,-0.16434 -0.124305,0.0477 -0.22651,-0.171378 -0.160367,-0.343746 0.07159,-0.186562 0.28619,-0.235906 0.293082,-0.06739 0.0049,0.120818 0.01784,0.116775 0.07602,-0.02382 0.04776,-0.11541 0.03077,-0.200447 -0.05335,-0.267038 -0.08701,-0.06888 -0.09529,-0.115092 -0.02806,-0.156645 0.138138,-0.08537 0.1956,0.0053 0.187348,0.295491 -0.004,0.140356 0.0283,0.255192 0.07175,0.255192 0.04345,0 0.079,0.04218 0.079,0.09373 0,0.05155 -0.05715,0.07179 -0.127,0.04499 -0.149509,-0.05737 -0.163332,0.05853 -0.03547,0.297435 0.05034,0.09406 0.0758,0.186748 0.05657,0.205973 -0.01922,0.01922 -0.08427,-0.0572 -0.144549,-0.169825 z m -2.543549,0.0357 c 0,-0.04657 0.0381,-0.08467 0.08467,-0.08467 0.04657,0 0.08467,0.0381 0.08467,0.08467 0,0.04657 -0.0381,0.08467 -0.08467,0.08467 -0.04657,0 -0.08467,-0.0381 -0.08467,-0.08467 z m 0.963199,-0.468916 c 0.03233,-0.08424 -0.01681,-0.157483 -0.139108,-0.207344 l -0.189091,-0.07709 0.184641,-0.055 c 0.104713,-0.03119 0.166353,-0.102657 0.142395,-0.165092 -0.02324,-0.06055 -0.0034,-0.13409 0.04404,-0.163419 0.05408,-0.03342 0.07567,0.05624 0.05783,0.240247 -0.02833,0.292371 -0.0271,0.293497 0.302391,0.275078 0.249279,-0.01393 0.319935,0.0099 0.286605,0.09678 -0.02433,0.0634 -0.04424,0.131208 -0.04424,0.150683 0,0.08662 -0.329628,0.02454 -0.373945,-0.07043 -0.03951,-0.08467 -0.05927,-0.08467 -0.09878,0 -0.07147,0.153153 -0.23217,0.130439 -0.172746,-0.02442 z m -0.370532,-0.03908 c 0,-0.04657 0.0381,-0.08467 0.08467,-0.08467 0.04657,0 0.08467,0.0381 0.08467,0.08467 0,0.04657 -0.0381,0.08467 -0.08467,0.08467 -0.04657,0 -0.08467,-0.0381 -0.08467,-0.08467 z m -1.306286,-0.556381 c -0.07318,-0.07318 -0.133047,-0.170674 -0.133047,-0.216663 0,-0.04599 -0.03411,-0.06254 -0.0758,-0.03677 -0.04169,0.02576 -0.0962,-0.0063 -0.121137,-0.07132 -0.05969,-0.155549 0.185649,-0.120783 0.285282,0.04043 0.04114,0.06657 0.1233,0.121042 0.18257,0.121042 0.05927,0 0.120602,0.06667 0.136296,0.148166 0.03546,0.184107 -0.09783,0.191457 -0.274168,0.01512 z m 0.0067,-0.414574 c -0.02623,-0.06836 -0.01126,-0.146807 0.03328,-0.17433 0.04453,-0.02752 0.08097,0.01161 0.08097,0.08695 0,0.08199 0.03925,0.112739 0.09775,0.07658 0.06056,-0.03743 0.07477,-0.02323 0.03734,0.03734 -0.08293,0.134177 -0.192117,0.122554 -0.249329,-0.02654 z m 2.146247,0.03962 c 0,-0.04657 0.05715,-0.08467 0.127,-0.08467 0.06985,0 0.127,0.0381 0.127,0.08467 0,0.04657 -0.05715,0.08467 -0.127,0.08467 -0.06985,0 -0.127,-0.0381 -0.127,-0.08467 z m 0.439208,-0.08996 c 0.02037,-0.06112 0.08705,-0.127794 0.148167,-0.148167 0.0635,-0.02117 0.09525,0.01058 0.07408,0.07408 -0.02037,0.06112 -0.08705,0.127794 -0.148167,0.148167 -0.0635,0.02117 -0.09525,-0.01058 -0.07408,-0.07408 z M 72.28113,60.6186 c 0,-0.04931 0.0381,-0.06612 0.08467,-0.03734 0.04657,0.02878 0.08467,0.06913 0.08467,0.08966 0,0.02054 -0.0381,0.03734 -0.08467,0.03734 -0.04657,0 -0.08467,-0.04035 -0.08467,-0.08966 z m -0.460837,-0.374354 c 0.01749,-0.2069 -0.005,-0.398936 -0.05002,-0.426746 -0.045,-0.02781 -0.08181,0.0088 -0.08181,0.08143 0,0.0726 -0.0381,0.131996 -0.08467,0.131996 -0.04657,0 -0.08467,-0.04953 -0.08467,-0.110066 0,-0.06946 -0.109911,-0.110067 -0.297883,-0.110067 -0.207876,0 -0.259041,0.02174 -0.169334,0.07194 0.233083,0.130441 0.149189,0.291228 -0.130534,0.250174 -0.184036,-0.02701 -0.245349,-0.07382 -0.211666,-0.161595 0.02608,-0.06796 0.04742,-0.173161 0.04742,-0.233773 0,-0.06061 0.09525,-0.128414 0.211667,-0.150668 0.116417,-0.02226 0.211667,-0.01121 0.211667,0.02454 0,0.08941 0.328577,-0.0037 0.395559,-0.112037 0.03397,-0.05497 -0.01404,-0.06993 -0.128437,-0.04001 -0.100479,0.02628 -0.161243,0.01307 -0.135031,-0.02934 0.06103,-0.09875 0.74765,-0.01556 0.785307,0.09514 0.01562,0.04592 0.05925,0.06442 0.09696,0.04111 0.03771,-0.02331 0.0892,0.0114 0.114421,0.07713 0.02522,0.06573 -0.01232,0.141833 -0.08343,0.169121 -0.175342,0.06728 -0.286416,-0.01376 -0.22789,-0.166272 0.03539,-0.09222 0.0084,-0.110037 -0.102253,-0.06757 -0.111034,0.04261 -0.132205,0.02838 -0.08101,-0.05445 0.04587,-0.07422 0.03657,-0.09191 -0.0275,-0.05231 -0.112769,0.0697 0.114058,0.474334 0.265897,0.474334 0.05011,0 0.02091,0.05133 -0.0649,0.114076 -0.103529,0.0757 -0.124456,0.133576 -0.06221,0.172045 0.05159,0.03188 0.0708,0.123423 0.0427,0.203423 -0.03509,0.09988 -0.02324,0.118925 0.03781,0.06079 0.0489,-0.04657 0.107238,-0.160867 0.129639,-0.254 0.02814,-0.117001 0.04377,-0.09 0.05055,0.08737 0.0082,0.213246 -0.02471,0.259558 -0.194162,0.273582 -0.19167,0.01586 -0.202064,-0.0058 -0.172187,-0.3593 z m 0.680933,0.176248 c 0.025,-0.06514 -0.0011,-0.147226 -0.05807,-0.182415 -0.06385,-0.03946 -0.08175,-0.02876 -0.04673,0.02792 0.03124,0.05054 0.01807,0.11583 -0.02925,0.145079 -0.04733,0.02925 -0.08605,-0.004 -0.08605,-0.07382 0,-0.06985 0.03644,-0.149518 0.08097,-0.177041 0.04453,-0.02752 0.05711,-0.112222 0.02795,-0.18822 -0.03544,-0.09236 -0.02018,-0.11788 0.04603,-0.07696 0.05448,0.03367 0.09905,0.116121 0.09905,0.183222 0,0.0671 0.04035,0.122004 0.08966,0.122004 0.04932,0 0.06105,-0.04762 0.02608,-0.105834 -0.04421,-0.07359 -0.02049,-0.07089 0.07789,0.0089 0.107482,0.08716 0.120843,0.153273 0.05561,0.275166 -0.09881,0.184632 -0.352307,0.22224 -0.283146,0.04201 z m 0.372571,0.03377 c 0,-0.04657 0.0594,-0.08467 0.131997,-0.08467 0.0726,0 0.108449,0.0381 0.07967,0.08467 -0.02878,0.04657 -0.08818,0.08467 -0.131998,0.08467 -0.04382,0 -0.07967,-0.0381 -0.07967,-0.08467 z M 71.26513,60.07826 c 0,-0.0671 0.0381,-0.14555 0.08467,-0.17433 0.04657,-0.02878 0.08467,0.02612 0.08467,0.122004 0,0.09588 -0.0381,0.17433 -0.08467,0.17433 -0.04657,0 -0.08467,-0.0549 -0.08467,-0.122004 z m 1.308852,-0.222296 c -0.08237,-0.133278 0.009,-0.186796 0.209997,-0.123002 0.09732,0.03089 0.155092,0.09152 0.128384,0.134731 -0.06581,0.106485 -0.269688,0.09942 -0.338381,-0.01173 z M 72.011255,59.29576 c 0.06112,-0.02446 0.134144,-0.02145 0.162278,0.0067 0.02813,0.02813 -0.02187,0.04814 -0.111125,0.04447 -0.09863,-0.0041 -0.118694,-0.02412 -0.05115,-0.05115 z"
         id="path2504"
         inkscape:connector-curvature="0" />
      <path
         style="fill:#8d9773;stroke-width:0.08466666"
         d="m 58.066289,66.197481 c -0.08811,-0.201786 -0.472843,-1.090784 -0.854959,-1.975551 -0.382116,-0.884766 -0.708613,-1.631227 -0.725548,-1.658801 -0.04939,-0.08042 2.198371,-4.166428 2.313019,-4.204644 0.05718,-0.01906 0.146159,0.07322 0.197741,0.205063 0.117095,0.299292 1.251192,3.535263 1.359941,3.880382 0.07269,0.230674 -0.01351,0.428894 -0.938562,2.158413 -0.56023,1.047427 -1.057486,1.917375 -1.105014,1.933217 -0.04753,0.01584 -0.158506,-0.136293 -0.246618,-0.338079 z M 59.220825,64.168649 59.97592,62.7607 59.334026,62.71807 c -0.353042,-0.02345 -0.64925,-0.03657 -0.658239,-0.02915 -0.009,0.0074 -0.05733,0.526825 -0.107416,1.154247 -0.05009,0.627421 -0.106206,1.286788 -0.124703,1.465259 -0.0185,0.178471 -0.0211,0.311821 -0.0058,0.296333 0.01532,-0.01549 0.36764,-0.661736 0.782942,-1.436107 z m -0.839504,-0.243052 c 0.04475,-0.675217 0.07584,-1.232936 0.06909,-1.239377 -0.0068,-0.0064 -0.362978,-0.03892 -0.791615,-0.07219 l -0.77934,-0.06047 0.426643,0.961186 c 0.234654,0.528652 0.52572,1.206771 0.646814,1.506931 0.197155,0.488694 0.226803,0.524098 0.283613,0.338666 0.03489,-0.113893 0.100053,-0.759528 0.1448,-1.434745 z m 1.609032,-1.423626 c -0.01552,-0.03793 -0.256547,-0.723728 -0.535611,-1.524 -0.279064,-0.800272 -0.530648,-1.455041 -0.559075,-1.455041 -0.02843,0 -0.07699,0.447675 -0.107913,0.994834 -0.03092,0.547158 -0.07925,1.211332 -0.10738,1.475942 l -0.05115,0.481109 0.327788,0.03383 c 0.626794,0.06468 1.061397,0.06188 1.033344,-0.0067 z m -1.509888,-0.159085 c 0,-0.199786 0.162232,-2.451967 0.205501,-2.852864 l 0.03554,-0.329242 -0.147445,0.244575 c -0.08109,0.134517 -0.311762,0.549375 -0.512592,0.921909 -0.200831,0.372533 -0.533686,0.989695 -0.739678,1.37147 l -0.374531,0.694138 0.491438,0.03069 c 0.270291,0.01688 0.615263,0.03789 0.766605,0.0467 0.20842,0.01212 0.275167,-0.01877 0.275167,-0.127369 z m 12.222732,1.589274 c -1.280412,-0.581418 -1.89,-2.267801 -1.289178,-3.566426 0.286293,-0.618797 0.639044,-1.008296 1.189115,-1.312995 0.386246,-0.213952 0.540692,-0.249449 1.08533,-0.249449 0.545,0 0.698992,0.03545 1.086503,0.250088 0.536534,0.297186 0.810945,0.602436 1.107128,1.231552 0.31455,0.668125 0.31252,1.621298 -0.0049,2.298528 -0.275189,0.58714 -0.803046,1.129232 -1.312024,1.347405 -0.507464,0.217525 -1.384454,0.218136 -1.861981,0.0013 z m 1.777708,-0.363129 c 1.033081,-0.519548 1.521901,-1.679483 1.196498,-2.839209 -0.184394,-0.657174 -0.573773,-1.123414 -1.19001,-1.42491 -0.390224,-0.19092 -0.540723,-0.220701 -0.918348,-0.181727 -1.194704,0.123305 -2.017101,1.094492 -2.016562,2.381405 3.39e-4,0.74779 0.210465,1.247466 0.723573,1.720432 0.660876,0.609174 1.436849,0.730244 2.204849,0.344009 z"
         id="path2502"
         inkscape:connector-curvature="0" />
      <path
         style="fill:#1e1710;stroke-width:0.08466666"
         d="m 57.358631,64.529264 c -0.454025,-1.062755 -0.8255,-1.978246 -0.8255,-2.034424 0,-0.05618 0.47625,-0.963678 1.058334,-2.016666 0.582083,-1.052989 1.058333,-1.946336 1.058333,-1.985217 0,-0.03888 0.06668,-0.06997 0.148167,-0.0691 0.117251,0.0013 0.30243,0.446047 0.887498,2.131701 l 0.739331,2.130106 -0.972165,1.802063 c -0.53469,0.991134 -0.972164,1.841618 -0.972164,1.889964 0,0.04835 -0.06668,0.08699 -0.148167,0.08588 -0.112111,-0.0015 -0.349048,-0.472238 -0.973667,-1.934307 z m 2.119873,-0.783003 0.520944,-0.983668 -0.390309,-0.0535 c -0.67836,-0.09298 -0.943989,-0.06756 -0.989444,0.09467 -0.02283,0.08149 -0.0649,0.567266 -0.09348,1.0795 -0.02858,0.512233 -0.07232,1.140883 -0.09719,1.397 l -0.04523,0.465666 0.286882,-0.508 c 0.157785,-0.2794 0.521307,-0.950651 0.807826,-1.491669 z m -1.133891,0.920169 c 0.0304,-0.523875 0.07745,-1.186994 0.104559,-1.473599 l 0.04929,-0.5211 -0.625941,-0.05866 c -1.098674,-0.102954 -1.073448,-0.216236 -0.334359,1.501477 0.355282,0.82571 0.669641,1.501985 0.698575,1.502834 0.02893,8.49e-4 0.07748,-0.427082 0.107874,-0.950957 z m 1.659852,-2.132082 c 0,-0.107413 -1.049501,-3.066239 -1.111702,-3.134184 -0.04312,-0.0471 -0.07363,0.03403 -0.07363,0.195801 0,0.151928 -0.04105,0.829227 -0.09123,1.505107 -0.05017,0.675881 -0.07042,1.283095 -0.04499,1.349366 0.03433,0.08945 0.210499,0.120492 0.683894,0.120492 0.350712,0 0.637658,-0.01646 0.637658,-0.03658 z m -1.493553,-0.492584 c 0.02748,-0.244475 0.07114,-0.76835 0.09703,-1.164167 0.02589,-0.395817 0.06748,-0.967317 0.09241,-1.27 l 0.04534,-0.550333 -0.894616,1.628726 c -0.492038,0.895799 -0.894615,1.64586 -0.894615,1.666802 0,0.05131 0.446412,0.103421 1.027411,0.119922 l 0.477077,0.01355 z m 12.373218,1.954379 c -1.089135,-0.410183 -1.701096,-1.412633 -1.634002,-2.676651 0.07801,-1.469589 1.088962,-2.510442 2.438336,-2.510442 2.226931,0 3.24221,2.85029 1.621511,4.552221 -0.457159,0.480072 -0.886249,0.671129 -1.579178,0.703147 -0.325967,0.01506 -0.706967,-0.01566 -0.846667,-0.06828 z m 1.530158,-0.367018 c 1.028268,-0.417693 1.611822,-1.778714 1.268705,-2.958998 -0.111334,-0.382974 -0.240389,-0.588844 -0.58196,-0.928352 -0.841897,-0.836808 -1.881956,-0.871708 -2.748911,-0.09224 -0.564125,0.507197 -0.812023,1.078265 -0.808749,1.863064 0.0031,0.745221 0.209057,1.230913 0.722254,1.703299 0.635403,0.584876 1.37564,0.727238 2.148661,0.413229 z"
         id="path2500"
         inkscape:connector-curvature="0" />
    </g>
  </g>
</svg>
